<svg xmlns="http://www.w3.org/2000/svg" version="1.1" xmlns:xlink="http://www.w3.org/1999/xlink" xmlns:svgjs="http://svgjs.com/svgjs" width="1600" height="600" preserveAspectRatio="none" viewBox="0 0 1600 600"><g mask="url(&quot;#SvgjsMask1014&quot;)" fill="none"><rect width="1600" height="600" x="0" y="0" fill="rgba(25, 38, 67, 1)"></rect><path d="M63.8 152.98L128.75 190.48L128.75 265.48L63.8 302.98L-1.15 265.48L-1.15 190.48zM128.75 265.48L193.71 302.98L193.71 377.98L128.75 415.48L63.8 377.98L63.8 302.98zM63.8 377.98L128.75 415.48L128.75 490.48L63.8 527.98L-1.15 490.48L-1.15 415.48zM128.75 490.48L193.71 527.98L193.71 602.98L128.75 640.48L63.8 602.98L63.8 527.98zM193.71 -72.02L258.66 -34.52L258.66 40.48L193.71 77.98L128.75 40.48L128.75 -34.52zM258.66 40.48L323.62 77.98L323.62 152.98L258.66 190.48L193.71 152.98L193.71 77.98zM193.71 152.98L258.66 190.48L258.66 265.48L193.71 302.98L128.75 265.48L128.75 190.48zM323.62 -72.02L388.57 -34.52L388.57 40.48L323.62 77.98L258.66 40.48L258.66 -34.52zM323.62 377.98L388.57 415.48L388.57 490.48L323.62 527.98L258.66 490.48L258.66 415.48zM453.52 -72.02L518.48 -34.52L518.48 40.48L453.52 77.98L388.57 40.48L388.57 -34.52zM453.52 152.98L518.48 190.48L518.48 265.48L453.52 302.98L388.57 265.48L388.57 190.48zM518.48 265.48L583.43 302.98L583.43 377.98L518.48 415.48L453.52 377.98L453.52 302.98zM453.52 377.98L518.48 415.48L518.48 490.48L453.52 527.98L388.57 490.48L388.57 415.48zM518.48 490.48L583.43 527.98L583.43 602.98L518.48 640.48L453.52 602.98L453.52 527.98zM648.38 265.48L713.34 302.98L713.34 377.98L648.38 415.48L583.43 377.98L583.43 302.98zM583.43 377.98L648.38 415.48L648.38 490.48L583.43 527.98L518.48 490.48L518.48 415.48zM648.38 490.48L713.34 527.98L713.34 602.98L648.38 640.48L583.43 602.98L583.43 527.98zM713.34 152.98L778.29 190.48L778.29 265.48L713.34 302.98L648.38 265.48L648.38 190.48zM908.2 265.48L973.15 302.98L973.15 377.98L908.2 415.48L843.24 377.98L843.24 302.98zM973.15 377.98L1038.11 415.48L1038.11 490.48L973.15 527.98L908.2 490.48L908.2 415.48zM1168.01 40.48L1232.97 77.98L1232.97 152.98L1168.01 190.48L1103.06 152.98L1103.06 77.98zM1103.06 152.98L1168.01 190.48L1168.01 265.48L1103.06 302.98L1038.11 265.48L1038.11 190.48zM1103.06 377.98L1168.01 415.48L1168.01 490.48L1103.06 527.98L1038.11 490.48L1038.11 415.48zM1232.97 -72.02L1297.92 -34.52L1297.92 40.48L1232.97 77.98L1168.01 40.48L1168.01 -34.52zM1492.78 152.98L1557.74 190.48L1557.74 265.48L1492.78 302.98L1427.83 265.48L1427.83 190.48zM1557.74 490.48L1622.69 527.98L1622.69 602.98L1557.74 640.48L1492.78 602.98L1492.78 527.98zM1687.64 40.48L1752.6 77.98L1752.6 152.98L1687.64 190.48L1622.69 152.98L1622.69 77.98zM1687.64 490.48L1752.6 527.98L1752.6 602.98L1687.64 640.48L1622.69 602.98L1622.69 527.98z" stroke="#03305d" stroke-width="2"></path><path d="M56.3 152.98 a7.5 7.5 0 1 0 15 0 a7.5 7.5 0 1 0 -15 0zM121.25 190.48 a7.5 7.5 0 1 0 15 0 a7.5 7.5 0 1 0 -15 0zM121.25 265.48 a7.5 7.5 0 1 0 15 0 a7.5 7.5 0 1 0 -15 0zM56.3 302.98 a7.5 7.5 0 1 0 15 0 a7.5 7.5 0 1 0 -15 0zM-8.65 265.48 a7.5 7.5 0 1 0 15 0 a7.5 7.5 0 1 0 -15 0zM-8.65 190.48 a7.5 7.5 0 1 0 15 0 a7.5 7.5 0 1 0 -15 0zM186.21 302.98 a7.5 7.5 0 1 0 15 0 a7.5 7.5 0 1 0 -15 0zM186.21 377.98 a7.5 7.5 0 1 0 15 0 a7.5 7.5 0 1 0 -15 0zM121.25 415.48 a7.5 7.5 0 1 0 15 0 a7.5 7.5 0 1 0 -15 0zM56.3 377.98 a7.5 7.5 0 1 0 15 0 a7.5 7.5 0 1 0 -15 0zM121.25 490.48 a7.5 7.5 0 1 0 15 0 a7.5 7.5 0 1 0 -15 0zM56.3 527.98 a7.5 7.5 0 1 0 15 0 a7.5 7.5 0 1 0 -15 0zM-8.65 490.48 a7.5 7.5 0 1 0 15 0 a7.5 7.5 0 1 0 -15 0zM-8.65 415.48 a7.5 7.5 0 1 0 15 0 a7.5 7.5 0 1 0 -15 0zM186.21 527.98 a7.5 7.5 0 1 0 15 0 a7.5 7.5 0 1 0 -15 0zM186.21 602.98 a7.5 7.5 0 1 0 15 0 a7.5 7.5 0 1 0 -15 0zM121.25 640.48 a7.5 7.5 0 1 0 15 0 a7.5 7.5 0 1 0 -15 0zM56.3 602.98 a7.5 7.5 0 1 0 15 0 a7.5 7.5 0 1 0 -15 0zM186.21 -72.02 a7.5 7.5 0 1 0 15 0 a7.5 7.5 0 1 0 -15 0zM251.16 -34.52 a7.5 7.5 0 1 0 15 0 a7.5 7.5 0 1 0 -15 0zM251.16 40.48 a7.5 7.5 0 1 0 15 0 a7.5 7.5 0 1 0 -15 0zM186.21 77.98 a7.5 7.5 0 1 0 15 0 a7.5 7.5 0 1 0 -15 0zM121.25 40.48 a7.5 7.5 0 1 0 15 0 a7.5 7.5 0 1 0 -15 0zM121.25 -34.52 a7.5 7.5 0 1 0 15 0 a7.5 7.5 0 1 0 -15 0zM316.12 77.98 a7.5 7.5 0 1 0 15 0 a7.5 7.5 0 1 0 -15 0zM316.12 152.98 a7.5 7.5 0 1 0 15 0 a7.5 7.5 0 1 0 -15 0zM251.16 190.48 a7.5 7.5 0 1 0 15 0 a7.5 7.5 0 1 0 -15 0zM186.21 152.98 a7.5 7.5 0 1 0 15 0 a7.5 7.5 0 1 0 -15 0zM251.16 265.48 a7.5 7.5 0 1 0 15 0 a7.5 7.5 0 1 0 -15 0zM316.12 -72.02 a7.5 7.5 0 1 0 15 0 a7.5 7.5 0 1 0 -15 0zM381.07 -34.52 a7.5 7.5 0 1 0 15 0 a7.5 7.5 0 1 0 -15 0zM381.07 40.48 a7.5 7.5 0 1 0 15 0 a7.5 7.5 0 1 0 -15 0zM316.12 377.98 a7.5 7.5 0 1 0 15 0 a7.5 7.5 0 1 0 -15 0zM381.07 415.48 a7.5 7.5 0 1 0 15 0 a7.5 7.5 0 1 0 -15 0zM381.07 490.48 a7.5 7.5 0 1 0 15 0 a7.5 7.5 0 1 0 -15 0zM316.12 527.98 a7.5 7.5 0 1 0 15 0 a7.5 7.5 0 1 0 -15 0zM251.16 490.48 a7.5 7.5 0 1 0 15 0 a7.5 7.5 0 1 0 -15 0zM251.16 415.48 a7.5 7.5 0 1 0 15 0 a7.5 7.5 0 1 0 -15 0zM446.02 -72.02 a7.5 7.5 0 1 0 15 0 a7.5 7.5 0 1 0 -15 0zM510.98 -34.52 a7.5 7.5 0 1 0 15 0 a7.5 7.5 0 1 0 -15 0zM510.98 40.48 a7.5 7.5 0 1 0 15 0 a7.5 7.5 0 1 0 -15 0zM446.02 77.98 a7.5 7.5 0 1 0 15 0 a7.5 7.5 0 1 0 -15 0zM446.02 152.98 a7.5 7.5 0 1 0 15 0 a7.5 7.5 0 1 0 -15 0zM510.98 190.48 a7.5 7.5 0 1 0 15 0 a7.5 7.5 0 1 0 -15 0zM510.98 265.48 a7.5 7.5 0 1 0 15 0 a7.5 7.5 0 1 0 -15 0zM446.02 302.98 a7.5 7.5 0 1 0 15 0 a7.5 7.5 0 1 0 -15 0zM381.07 265.48 a7.5 7.5 0 1 0 15 0 a7.5 7.5 0 1 0 -15 0zM381.07 190.48 a7.5 7.5 0 1 0 15 0 a7.5 7.5 0 1 0 -15 0zM575.93 302.98 a7.5 7.5 0 1 0 15 0 a7.5 7.5 0 1 0 -15 0zM575.93 377.98 a7.5 7.5 0 1 0 15 0 a7.5 7.5 0 1 0 -15 0zM510.98 415.48 a7.5 7.5 0 1 0 15 0 a7.5 7.5 0 1 0 -15 0zM446.02 377.98 a7.5 7.5 0 1 0 15 0 a7.5 7.5 0 1 0 -15 0zM510.98 490.48 a7.5 7.5 0 1 0 15 0 a7.5 7.5 0 1 0 -15 0zM446.02 527.98 a7.5 7.5 0 1 0 15 0 a7.5 7.5 0 1 0 -15 0zM575.93 527.98 a7.5 7.5 0 1 0 15 0 a7.5 7.5 0 1 0 -15 0zM575.93 602.98 a7.5 7.5 0 1 0 15 0 a7.5 7.5 0 1 0 -15 0zM510.98 640.48 a7.5 7.5 0 1 0 15 0 a7.5 7.5 0 1 0 -15 0zM446.02 602.98 a7.5 7.5 0 1 0 15 0 a7.5 7.5 0 1 0 -15 0zM640.88 265.48 a7.5 7.5 0 1 0 15 0 a7.5 7.5 0 1 0 -15 0zM705.84 302.98 a7.5 7.5 0 1 0 15 0 a7.5 7.5 0 1 0 -15 0zM705.84 377.98 a7.5 7.5 0 1 0 15 0 a7.5 7.5 0 1 0 -15 0zM640.88 415.48 a7.5 7.5 0 1 0 15 0 a7.5 7.5 0 1 0 -15 0zM640.88 490.48 a7.5 7.5 0 1 0 15 0 a7.5 7.5 0 1 0 -15 0zM705.84 527.98 a7.5 7.5 0 1 0 15 0 a7.5 7.5 0 1 0 -15 0zM705.84 602.98 a7.5 7.5 0 1 0 15 0 a7.5 7.5 0 1 0 -15 0zM640.88 640.48 a7.5 7.5 0 1 0 15 0 a7.5 7.5 0 1 0 -15 0zM705.84 152.98 a7.5 7.5 0 1 0 15 0 a7.5 7.5 0 1 0 -15 0zM770.79 190.48 a7.5 7.5 0 1 0 15 0 a7.5 7.5 0 1 0 -15 0zM770.79 265.48 a7.5 7.5 0 1 0 15 0 a7.5 7.5 0 1 0 -15 0zM640.88 190.48 a7.5 7.5 0 1 0 15 0 a7.5 7.5 0 1 0 -15 0zM900.7 265.48 a7.5 7.5 0 1 0 15 0 a7.5 7.5 0 1 0 -15 0zM965.65 302.98 a7.5 7.5 0 1 0 15 0 a7.5 7.5 0 1 0 -15 0zM965.65 377.98 a7.5 7.5 0 1 0 15 0 a7.5 7.5 0 1 0 -15 0zM900.7 415.48 a7.5 7.5 0 1 0 15 0 a7.5 7.5 0 1 0 -15 0zM835.74 377.98 a7.5 7.5 0 1 0 15 0 a7.5 7.5 0 1 0 -15 0zM835.74 302.98 a7.5 7.5 0 1 0 15 0 a7.5 7.5 0 1 0 -15 0zM1030.61 415.48 a7.5 7.5 0 1 0 15 0 a7.5 7.5 0 1 0 -15 0zM1030.61 490.48 a7.5 7.5 0 1 0 15 0 a7.5 7.5 0 1 0 -15 0zM965.65 527.98 a7.5 7.5 0 1 0 15 0 a7.5 7.5 0 1 0 -15 0zM900.7 490.48 a7.5 7.5 0 1 0 15 0 a7.5 7.5 0 1 0 -15 0zM1160.51 40.48 a7.5 7.5 0 1 0 15 0 a7.5 7.5 0 1 0 -15 0zM1225.47 77.98 a7.5 7.5 0 1 0 15 0 a7.5 7.5 0 1 0 -15 0zM1225.47 152.98 a7.5 7.5 0 1 0 15 0 a7.5 7.5 0 1 0 -15 0zM1160.51 190.48 a7.5 7.5 0 1 0 15 0 a7.5 7.5 0 1 0 -15 0zM1095.56 152.98 a7.5 7.5 0 1 0 15 0 a7.5 7.5 0 1 0 -15 0zM1095.56 77.98 a7.5 7.5 0 1 0 15 0 a7.5 7.5 0 1 0 -15 0zM1160.51 265.48 a7.5 7.5 0 1 0 15 0 a7.5 7.5 0 1 0 -15 0zM1095.56 302.98 a7.5 7.5 0 1 0 15 0 a7.5 7.5 0 1 0 -15 0zM1030.61 265.48 a7.5 7.5 0 1 0 15 0 a7.5 7.5 0 1 0 -15 0zM1030.61 190.48 a7.5 7.5 0 1 0 15 0 a7.5 7.5 0 1 0 -15 0zM1095.56 377.98 a7.5 7.5 0 1 0 15 0 a7.5 7.5 0 1 0 -15 0zM1160.51 415.48 a7.5 7.5 0 1 0 15 0 a7.5 7.5 0 1 0 -15 0zM1160.51 490.48 a7.5 7.5 0 1 0 15 0 a7.5 7.5 0 1 0 -15 0zM1095.56 527.98 a7.5 7.5 0 1 0 15 0 a7.5 7.5 0 1 0 -15 0zM1225.47 -72.02 a7.5 7.5 0 1 0 15 0 a7.5 7.5 0 1 0 -15 0zM1290.42 -34.52 a7.5 7.5 0 1 0 15 0 a7.5 7.5 0 1 0 -15 0zM1290.42 40.48 a7.5 7.5 0 1 0 15 0 a7.5 7.5 0 1 0 -15 0zM1160.51 -34.52 a7.5 7.5 0 1 0 15 0 a7.5 7.5 0 1 0 -15 0zM1485.28 152.98 a7.5 7.5 0 1 0 15 0 a7.5 7.5 0 1 0 -15 0zM1550.24 190.48 a7.5 7.5 0 1 0 15 0 a7.5 7.5 0 1 0 -15 0zM1550.24 265.48 a7.5 7.5 0 1 0 15 0 a7.5 7.5 0 1 0 -15 0zM1485.28 302.98 a7.5 7.5 0 1 0 15 0 a7.5 7.5 0 1 0 -15 0zM1420.33 265.48 a7.5 7.5 0 1 0 15 0 a7.5 7.5 0 1 0 -15 0zM1420.33 190.48 a7.5 7.5 0 1 0 15 0 a7.5 7.5 0 1 0 -15 0zM1550.24 490.48 a7.5 7.5 0 1 0 15 0 a7.5 7.5 0 1 0 -15 0zM1615.19 527.98 a7.5 7.5 0 1 0 15 0 a7.5 7.5 0 1 0 -15 0zM1615.19 602.98 a7.5 7.5 0 1 0 15 0 a7.5 7.5 0 1 0 -15 0zM1550.24 640.48 a7.5 7.5 0 1 0 15 0 a7.5 7.5 0 1 0 -15 0zM1485.28 602.98 a7.5 7.5 0 1 0 15 0 a7.5 7.5 0 1 0 -15 0zM1485.28 527.98 a7.5 7.5 0 1 0 15 0 a7.5 7.5 0 1 0 -15 0zM1680.14 40.48 a7.5 7.5 0 1 0 15 0 a7.5 7.5 0 1 0 -15 0zM1745.1 77.98 a7.5 7.5 0 1 0 15 0 a7.5 7.5 0 1 0 -15 0zM1745.1 152.98 a7.5 7.5 0 1 0 15 0 a7.5 7.5 0 1 0 -15 0zM1680.14 190.48 a7.5 7.5 0 1 0 15 0 a7.5 7.5 0 1 0 -15 0zM1615.19 152.98 a7.5 7.5 0 1 0 15 0 a7.5 7.5 0 1 0 -15 0zM1615.19 77.98 a7.5 7.5 0 1 0 15 0 a7.5 7.5 0 1 0 -15 0zM1680.14 490.48 a7.5 7.5 0 1 0 15 0 a7.5 7.5 0 1 0 -15 0zM1745.1 527.98 a7.5 7.5 0 1 0 15 0 a7.5 7.5 0 1 0 -15 0zM1745.1 602.98 a7.5 7.5 0 1 0 15 0 a7.5 7.5 0 1 0 -15 0zM1680.14 640.48 a7.5 7.5 0 1 0 15 0 a7.5 7.5 0 1 0 -15 0z" fill="#03305d"></path><path d="M43.19 131.97L86.49 156.97L86.49 206.97L43.19 231.97L-0.11 206.97L-0.11 156.97zM86.49 206.97L129.8 231.97L129.8 281.97L86.49 306.97L43.19 281.97L43.19 231.97zM86.49 356.97L129.8 381.97L129.8 431.97L86.49 456.97L43.19 431.97L43.19 381.97zM43.19 431.97L86.49 456.97L86.49 506.97L43.19 531.97L-0.11 506.97L-0.11 456.97zM129.8 581.97L173.1 606.97L173.1 656.97L129.8 681.97L86.49 656.97L86.49 606.97zM216.4 431.97L259.7 456.97L259.7 506.97L216.4 531.97L173.1 506.97L173.1 456.97zM216.4 581.97L259.7 606.97L259.7 656.97L216.4 681.97L173.1 656.97L173.1 606.97zM303 431.97L346.31 456.97L346.31 506.97L303 531.97L259.7 506.97L259.7 456.97zM432.91 206.97L476.22 231.97L476.22 281.97L432.91 306.97L389.61 281.97L389.61 231.97zM389.61 281.97L432.91 306.97L432.91 356.97L389.61 381.97L346.31 356.97L346.31 306.97zM389.61 431.97L432.91 456.97L432.91 506.97L389.61 531.97L346.31 506.97L346.31 456.97zM476.22 -18.03L519.52 6.97L519.52 56.97L476.22 81.97L432.91 56.97L432.91 6.97zM476.22 131.97L519.52 156.97L519.52 206.97L476.22 231.97L432.91 206.97L432.91 156.97zM476.22 281.97L519.52 306.97L519.52 356.97L476.22 381.97L432.91 356.97L432.91 306.97zM606.12 206.97L649.42 231.97L649.42 281.97L606.12 306.97L562.82 281.97L562.82 231.97zM606.12 356.97L649.42 381.97L649.42 431.97L606.12 456.97L562.82 431.97L562.82 381.97zM649.42 131.97L692.73 156.97L692.73 206.97L649.42 231.97L606.12 206.97L606.12 156.97zM692.73 356.97L736.03 381.97L736.03 431.97L692.73 456.97L649.42 431.97L649.42 381.97zM736.03 431.97L779.33 456.97L779.33 506.97L736.03 531.97L692.73 506.97L692.73 456.97zM779.33 506.97L822.63 531.97L822.63 581.97L779.33 606.97L736.03 581.97L736.03 531.97zM736.03 581.97L779.33 606.97L779.33 656.97L736.03 681.97L692.73 656.97L692.73 606.97zM822.63 -18.03L865.94 6.97L865.94 56.97L822.63 81.97L779.33 56.97L779.33 6.97zM822.63 131.97L865.94 156.97L865.94 206.97L822.63 231.97L779.33 206.97L779.33 156.97zM909.24 131.97L952.54 156.97L952.54 206.97L909.24 231.97L865.94 206.97L865.94 156.97zM909.24 431.97L952.54 456.97L952.54 506.97L909.24 531.97L865.94 506.97L865.94 456.97zM952.54 506.97L995.85 531.97L995.85 581.97L952.54 606.97L909.24 581.97L909.24 531.97zM1039.15 56.97L1082.45 81.97L1082.45 131.97L1039.15 156.97L995.85 131.97L995.85 81.97zM995.85 281.97L1039.15 306.97L1039.15 356.97L995.85 381.97L952.54 356.97L952.54 306.97zM995.85 581.97L1039.15 606.97L1039.15 656.97L995.85 681.97L952.54 656.97L952.54 606.97zM1082.45 -18.03L1125.75 6.97L1125.75 56.97L1082.45 81.97L1039.15 56.97L1039.15 6.97zM1082.45 131.97L1125.75 156.97L1125.75 206.97L1082.45 231.97L1039.15 206.97L1039.15 156.97zM1169.06 281.97L1212.36 306.97L1212.36 356.97L1169.06 381.97L1125.75 356.97L1125.75 306.97zM1212.36 356.97L1255.66 381.97L1255.66 431.97L1212.36 456.97L1169.06 431.97L1169.06 381.97zM1255.66 281.97L1298.96 306.97L1298.96 356.97L1255.66 381.97L1212.36 356.97L1212.36 306.97zM1298.96 356.97L1342.27 381.97L1342.27 431.97L1298.96 456.97L1255.66 431.97L1255.66 381.97zM1255.66 581.97L1298.96 606.97L1298.96 656.97L1255.66 681.97L1212.36 656.97L1212.36 606.97zM1342.27 131.97L1385.57 156.97L1385.57 206.97L1342.27 231.97L1298.96 206.97L1298.96 156.97zM1342.27 431.97L1385.57 456.97L1385.57 506.97L1342.27 531.97L1298.96 506.97L1298.96 456.97zM1385.57 506.97L1428.87 531.97L1428.87 581.97L1385.57 606.97L1342.27 581.97L1342.27 531.97zM1472.17 56.97L1515.48 81.97L1515.48 131.97L1472.17 156.97L1428.87 131.97L1428.87 81.97zM1428.87 281.97L1472.17 306.97L1472.17 356.97L1428.87 381.97L1385.57 356.97L1385.57 306.97zM1428.87 431.97L1472.17 456.97L1472.17 506.97L1428.87 531.97L1385.57 506.97L1385.57 456.97zM1428.87 581.97L1472.17 606.97L1472.17 656.97L1428.87 681.97L1385.57 656.97L1385.57 606.97zM1515.48 -18.03L1558.78 6.97L1558.78 56.97L1515.48 81.97L1472.17 56.97L1472.17 6.97zM1558.78 56.97L1602.08 81.97L1602.08 131.97L1558.78 156.97L1515.48 131.97L1515.48 81.97zM1515.48 131.97L1558.78 156.97L1558.78 206.97L1515.48 231.97L1472.17 206.97L1472.17 156.97zM1515.48 281.97L1558.78 306.97L1558.78 356.97L1515.48 381.97L1472.17 356.97L1472.17 306.97zM1558.78 356.97L1602.08 381.97L1602.08 431.97L1558.78 456.97L1515.48 431.97L1515.48 381.97zM1558.78 506.97L1602.08 531.97L1602.08 581.97L1558.78 606.97L1515.48 581.97L1515.48 531.97zM1515.48 581.97L1558.78 606.97L1558.78 656.97L1515.48 681.97L1472.17 656.97L1472.17 606.97zM1645.38 356.97L1688.69 381.97L1688.69 431.97L1645.38 456.97L1602.08 431.97L1602.08 381.97zM1602.08 431.97L1645.38 456.97L1645.38 506.97L1602.08 531.97L1558.78 506.97L1558.78 456.97z" stroke="rgba(6, 80, 156, 0.93)" stroke-width="2"></path></g><defs><mask id="SvgjsMask1014"><rect width="1600" height="600" fill="#ffffff"></rect></mask></defs></svg>