<?xml version="1.0" standalone="no"?><svg xmlns:xlink="http://www.w3.org/1999/xlink" xmlns="http://www.w3.org/2000/svg" viewBox="0 0 1000 545.4545454545455" preserveAspectRatio="xMaxYMax slice"><g transform="scale(1.4545454545454546)"><rect x="0" y="0" width="687.5" height="375" fill="#1F3668"/><g transform="translate(0,0) scale(3.125) rotate(0)"><path d="M10 0L20 10L10 20L0 10L10 0Z" fill="#1f3668"/></g><g transform="translate(62.5,0) scale(3.125) rotate(0)"><path d="M10 0L20 10L10 20L0 10L10 0Z" fill="#1a2e58"/></g><g transform="translate(125,0) scale(3.125) rotate(0)"><path d="M10 0L20 10L10 20L0 10L10 0Z" fill="#1f3668"/></g><g transform="translate(187.5,0) scale(3.125) rotate(0)"><path d="M10 0L20 10L10 20L0 10L10 0Z" fill="#1a2d58"/></g><g transform="translate(250,0) scale(3.125) rotate(0)"><path d="M10 0L20 10L10 20L0 10L10 0Z" fill="#1a2e59"/></g><g transform="translate(312.5,0) scale(3.125) rotate(0)"><path d="M10 0L20 10L10 20L0 10L10 0Z" fill="#1f3668"/></g><g transform="translate(375,0) scale(3.125) rotate(0)"><path d="M10 0L20 10L10 20L0 10L10 0Z" fill="#1f3668"/></g><g transform="translate(437.5,0) scale(3.125) rotate(0)"><path d="M10 0L20 10L10 20L0 10L10 0Z" fill="#1a2e59"/></g><g transform="translate(500,0) scale(3.125) rotate(0)"><path d="M10 0L20 10L10 20L0 10L10 0Z" fill="#1f3668"/></g><g transform="translate(562.5,0) scale(3.125) rotate(0)"><path d="M10 0L20 10L10 20L0 10L10 0Z" fill="#1a2d57"/></g><g transform="translate(625,0) scale(3.125) rotate(0)"><path d="M10 0L20 10L10 20L0 10L10 0Z" fill="#1b305d"/></g><g transform="translate(0,62.5) scale(3.125) rotate(0)"><path d="M10 0L20 10L10 20L0 10L10 0Z" fill="#1f3668"/></g><g transform="translate(62.5,62.5) scale(3.125) rotate(0)"><path d="M10 0L20 10L10 20L0 10L10 0Z" fill="#1b2f5b"/></g><g transform="translate(125,62.5) scale(3.125) rotate(0)"><path d="M10 0L20 10L10 20L0 10L10 0Z" fill="#1b305d"/></g><g transform="translate(187.5,62.5) scale(3.125) rotate(0)"><path d="M10 0L20 10L10 20L0 10L10 0Z" fill="#1f3668"/></g><g transform="translate(250,62.5) scale(3.125) rotate(0)"><path d="M10 0L20 10L10 20L0 10L10 0Z" fill="#1f3668"/></g><g transform="translate(312.5,62.5) scale(3.125) rotate(0)"><path d="M10 0L20 10L10 20L0 10L10 0Z" fill="#1f3668"/></g><g transform="translate(375,62.5) scale(3.125) rotate(0)"><path d="M10 0L20 10L10 20L0 10L10 0Z" fill="#1a2e59"/></g><g transform="translate(437.5,62.5) scale(3.125) rotate(0)"><path d="M10 0L20 10L10 20L0 10L10 0Z" fill="#1c315e"/></g><g transform="translate(500,62.5) scale(3.125) rotate(0)"><path d="M10 0L20 10L10 20L0 10L10 0Z" fill="#1d3362"/></g><g transform="translate(562.5,62.5) scale(3.125) rotate(0)"><path d="M10 0L20 10L10 20L0 10L10 0Z" fill="#1c3260"/></g><g transform="translate(625,62.5) scale(3.125) rotate(0)"><path d="M10 0L20 10L10 20L0 10L10 0Z" fill="#1d3363"/></g><g transform="translate(0,125) scale(3.125) rotate(0)"><path d="M10 0L20 10L10 20L0 10L10 0Z" fill="#1f3668"/></g><g transform="translate(62.5,125) scale(3.125) rotate(0)"><path d="M10 0L20 10L10 20L0 10L10 0Z" fill="#1c315f"/></g><g transform="translate(125,125) scale(3.125) rotate(0)"><path d="M10 0L20 10L10 20L0 10L10 0Z" fill="#1f3668"/></g><g transform="translate(187.5,125) scale(3.125) rotate(0)"><path d="M10 0L20 10L10 20L0 10L10 0Z" fill="#1b2f5b"/></g><g transform="translate(250,125) scale(3.125) rotate(0)"><path d="M10 0L20 10L10 20L0 10L10 0Z" fill="#1f3668"/></g><g transform="translate(312.5,125) scale(3.125) rotate(0)"><path d="M10 0L20 10L10 20L0 10L10 0Z" fill="#1f3668"/></g><g transform="translate(375,125) scale(3.125) rotate(0)"><path d="M10 0L20 10L10 20L0 10L10 0Z" fill="#1f3668"/></g><g transform="translate(437.5,125) scale(3.125) rotate(0)"><path d="M10 0L20 10L10 20L0 10L10 0Z" fill="#1c315e"/></g><g transform="translate(500,125) scale(3.125) rotate(0)"><path d="M10 0L20 10L10 20L0 10L10 0Z" fill="#1f3668"/></g><g transform="translate(562.5,125) scale(3.125) rotate(0)"><path d="M10 0L20 10L10 20L0 10L10 0Z" fill="#1f3668"/></g><g transform="translate(625,125) scale(3.125) rotate(0)"><path d="M10 0L20 10L10 20L0 10L10 0Z" fill="#1f3668"/></g><g transform="translate(0,187.5) scale(3.125) rotate(0)"><path d="M10 0L20 10L10 20L0 10L10 0Z" fill="#1f3668"/></g><g transform="translate(62.5,187.5) scale(3.125) rotate(0)"><path d="M10 0L20 10L10 20L0 10L10 0Z" fill="#1f3668"/></g><g transform="translate(125,187.5) scale(3.125) rotate(0)"><path d="M10 0L20 10L10 20L0 10L10 0Z" fill="#1f3668"/></g><g transform="translate(187.5,187.5) scale(3.125) rotate(0)"><path d="M10 0L20 10L10 20L0 10L10 0Z" fill="#1a2e59"/></g><g transform="translate(250,187.5) scale(3.125) rotate(0)"><path d="M10 0L20 10L10 20L0 10L10 0Z" fill="#1f3668"/></g><g transform="translate(312.5,187.5) scale(3.125) rotate(0)"><path d="M10 0L20 10L10 20L0 10L10 0Z" fill="#1f3668"/></g><g transform="translate(375,187.5) scale(3.125) rotate(0)"><path d="M10 0L20 10L10 20L0 10L10 0Z" fill="#1f3668"/></g><g transform="translate(437.5,187.5) scale(3.125) rotate(0)"><path d="M10 0L20 10L10 20L0 10L10 0Z" fill="#1f3668"/></g><g transform="translate(500,187.5) scale(3.125) rotate(0)"><path d="M10 0L20 10L10 20L0 10L10 0Z" fill="#1a2e58"/></g><g transform="translate(562.5,187.5) scale(3.125) rotate(0)"><path d="M10 0L20 10L10 20L0 10L10 0Z" fill="#1a2d58"/></g><g transform="translate(625,187.5) scale(3.125) rotate(0)"><path d="M10 0L20 10L10 20L0 10L10 0Z" fill="#1f3668"/></g><g transform="translate(0,250) scale(3.125) rotate(0)"><path d="M10 0L20 10L10 20L0 10L10 0Z" fill="#1f3668"/></g><g transform="translate(62.5,250) scale(3.125) rotate(0)"><path d="M10 0L20 10L10 20L0 10L10 0Z" fill="#1f3668"/></g><g transform="translate(125,250) scale(3.125) rotate(0)"><path d="M10 0L20 10L10 20L0 10L10 0Z" fill="#1b2f5b"/></g><g transform="translate(187.5,250) scale(3.125) rotate(0)"><path d="M10 0L20 10L10 20L0 10L10 0Z" fill="#1d3261"/></g><g transform="translate(250,250) scale(3.125) rotate(0)"><path d="M10 0L20 10L10 20L0 10L10 0Z" fill="#1f3668"/></g><g transform="translate(312.5,250) scale(3.125) rotate(0)"><path d="M10 0L20 10L10 20L0 10L10 0Z" fill="#1e3566"/></g><g transform="translate(375,250) scale(3.125) rotate(0)"><path d="M10 0L20 10L10 20L0 10L10 0Z" fill="#1e3464"/></g><g transform="translate(437.5,250) scale(3.125) rotate(0)"><path d="M10 0L20 10L10 20L0 10L10 0Z" fill="#192c55"/></g><g transform="translate(500,250) scale(3.125) rotate(0)"><path d="M10 0L20 10L10 20L0 10L10 0Z" fill="#1e3566"/></g><g transform="translate(562.5,250) scale(3.125) rotate(0)"><path d="M10 0L20 10L10 20L0 10L10 0Z" fill="#1f3668"/></g><g transform="translate(625,250) scale(3.125) rotate(0)"><path d="M10 0L20 10L10 20L0 10L10 0Z" fill="#1f3668"/></g><g transform="translate(0,312.5) scale(3.125) rotate(0)"><path d="M10 0L20 10L10 20L0 10L10 0Z" fill="#1c315f"/></g><g transform="translate(62.5,312.5) scale(3.125) rotate(0)"><path d="M10 0L20 10L10 20L0 10L10 0Z" fill="#1f3668"/></g><g transform="translate(125,312.5) scale(3.125) rotate(0)"><path d="M10 0L20 10L10 20L0 10L10 0Z" fill="#1d3363"/></g><g transform="translate(187.5,312.5) scale(3.125) rotate(0)"><path d="M10 0L20 10L10 20L0 10L10 0Z" fill="#1a2e58"/></g><g transform="translate(250,312.5) scale(3.125) rotate(0)"><path d="M10 0L20 10L10 20L0 10L10 0Z" fill="#1f3668"/></g><g transform="translate(312.5,312.5) scale(3.125) rotate(0)"><path d="M10 0L20 10L10 20L0 10L10 0Z" fill="#1f3668"/></g><g transform="translate(375,312.5) scale(3.125) rotate(0)"><path d="M10 0L20 10L10 20L0 10L10 0Z" fill="#1f3668"/></g><g transform="translate(437.5,312.5) scale(3.125) rotate(0)"><path d="M10 0L20 10L10 20L0 10L10 0Z" fill="#1f3668"/></g><g transform="translate(500,312.5) scale(3.125) rotate(0)"><path d="M10 0L20 10L10 20L0 10L10 0Z" fill="#1f3668"/></g><g transform="translate(562.5,312.5) scale(3.125) rotate(0)"><path d="M10 0L20 10L10 20L0 10L10 0Z" fill="#1f3668"/></g><g transform="translate(625,312.5) scale(3.125) rotate(0)"><path d="M10 0L20 10L10 20L0 10L10 0Z" fill="#1c315e"/></g></g></svg>