<svg xmlns="http://www.w3.org/2000/svg" version="1.1" xmlns:xlink="http://www.w3.org/1999/xlink" xmlns:svgjs="http://svgjs.com/svgjs" width="1440" height="560" preserveAspectRatio="none" viewBox="0 0 1440 560"><g mask="url(&quot;#SvgjsMask1034&quot;)" fill="none"><rect width="1440" height="560" x="0" y="0" fill="#0e2a47"></rect><path d="M537.197,236.441C557.34,235.701,573.014,221.026,583.026,203.531C592.959,186.175,597.058,165.572,587.941,147.774C578.018,128.404,558.949,114.791,537.197,114.069C514.197,113.306,491.501,124.118,480.266,144.202C469.258,163.88,473.296,187.939,485.139,207.127C496.35,225.291,515.866,237.225,537.197,236.441" fill="rgba(28, 83, 142, 0.4)" class="triangle-float3"></path><path d="M760.076,265.245C792.457,264.485,824.112,249.171,838.818,220.312C852.481,193.501,840.807,162.983,825.344,137.168C810.436,112.28,789.078,89.577,760.076,88.858C730.029,88.113,704.991,108.37,688.947,133.785C671.496,161.429,659.101,195.414,674.658,224.167C690.772,253.949,726.223,266.04,760.076,265.245" fill="rgba(28, 83, 142, 0.4)" class="triangle-float1"></path><path d="M154.237,27.413C171.252,26.847,182.728,12.172,191.296,-2.539C199.942,-17.383,207.142,-34.669,199.298,-49.951C190.908,-66.298,172.602,-75.304,154.237,-74.741C136.768,-74.205,122.214,-62.601,113.722,-47.326C105.491,-32.519,104.57,-14.815,112.643,0.079C121.117,15.711,136.466,28.005,154.237,27.413" fill="rgba(28, 83, 142, 0.4)" class="triangle-float2"></path><path d="M890.327,384.112C920.668,385.123,946.563,364.51,961.9,338.311C977.419,311.802,982.015,279.509,967.37,252.508C952.072,224.303,922.391,205.124,890.327,206.35C859.985,207.511,836.443,230.881,822.858,258.036C810.733,282.273,813.778,309.907,826.565,333.802C840.256,359.386,861.326,383.146,890.327,384.112" fill="rgba(28, 83, 142, 0.4)" class="triangle-float3"></path><path d="M402.77 1.26 a101.77 101.77 0 1 0 203.54 0 a101.77 101.77 0 1 0 -203.54 0z" fill="rgba(28, 83, 142, 0.4)" class="triangle-float1"></path><path d="M84.11 215.73 a125.73 125.73 0 1 0 251.46 0 a125.73 125.73 0 1 0 -251.46 0z" fill="rgba(28, 83, 142, 0.4)" class="triangle-float2"></path><path d="M1413.752,365.038C1458.363,366.445,1509.435,370.227,1534.599,333.364C1561.977,293.259,1554.246,238.489,1528.051,197.602C1503.78,159.719,1458.743,144.629,1413.752,144.739C1368.99,144.849,1323.37,159.73,1300.42,198.161C1276.96,237.445,1279.719,288.283,1305.426,326.135C1328.528,360.153,1372.651,363.742,1413.752,365.038" fill="rgba(28, 83, 142, 0.4)" class="triangle-float3"></path><path d="M1222.464,431.134C1253.211,430.953,1273.77,403.548,1289.456,377.102C1305.593,349.896,1320.743,318.175,1306.092,290.141C1290.663,260.619,1255.738,247.346,1222.464,248.915C1191.776,250.362,1165.855,270.29,1151.467,297.434C1137.996,322.847,1140.604,352.495,1154.093,377.898C1168.612,405.24,1191.507,431.316,1222.464,431.134" fill="rgba(28, 83, 142, 0.4)" class="triangle-float1"></path><path d="M1251.28 122.57 a147.01 147.01 0 1 0 294.02 0 a147.01 147.01 0 1 0 -294.02 0z" fill="rgba(28, 83, 142, 0.4)" class="triangle-float2"></path><path d="M924.795,390.912C961.382,390.439,996.016,374.592,1015.705,343.751C1037.062,310.297,1044.306,268.071,1025.546,233.094C1005.844,196.36,966.446,175.923,924.795,174.253C879.749,172.447,830.824,184.962,809.005,224.412C787.652,263.02,804.532,309.933,829.721,346.154C851.155,376.976,887.256,391.397,924.795,390.912" fill="rgba(28, 83, 142, 0.4)" class="triangle-float1"></path><path d="M671.327,451.377C709.814,453.614,751.633,447.432,773.054,415.379C796.528,380.253,795.569,333.699,774.406,297.134C753.281,260.636,713.414,236.958,671.327,239.619C632.856,242.051,605.935,274.454,588.594,308.881C573.204,339.434,571.03,375.051,588.207,404.636C605.313,434.099,637.315,449.4,671.327,451.377" fill="rgba(28, 83, 142, 0.4)" class="triangle-float2"></path><path d="M552.39 552.78 a175.65 175.65 0 1 0 351.3 0 a175.65 175.65 0 1 0 -351.3 0z" fill="rgba(28, 83, 142, 0.4)" class="triangle-float2"></path><path d="M765.024,167.538C799.853,164.852,827.377,141.605,845.185,111.553C863.43,80.763,872.264,44.527,857.138,12.09C839.444,-25.853,806.869,-61.659,765.024,-60.348C724.469,-59.077,702.31,-17.786,682.395,17.566C663.016,51.967,641.096,91.239,660.15,125.821C679.609,161.138,724.82,170.638,765.024,167.538" fill="rgba(28, 83, 142, 0.4)" class="triangle-float3"></path><path d="M136.847,389.116C171.685,387.341,200.623,366.374,219.397,336.974C240.073,304.596,255.508,265.12,237.797,231.029C219.021,194.889,177.557,176.927,136.847,178.081C98.08,179.18,64.952,203.023,45.342,236.483C25.482,270.37,18.121,312.511,38.317,346.199C58.06,379.13,98.501,391.07,136.847,389.116" fill="rgba(28, 83, 142, 0.4)" class="triangle-float3"></path><path d="M13.79 535.78 a105.14 105.14 0 1 0 210.28 0 a105.14 105.14 0 1 0 -210.28 0z" fill="rgba(28, 83, 142, 0.4)" class="triangle-float2"></path></g><defs><mask id="SvgjsMask1034"><rect width="1440" height="560" fill="#ffffff"></rect></mask><style>
            @keyframes float1 {
                0%{transform: translate(0, 0)}
                50%{transform: translate(-10px, 0)}
                100%{transform: translate(0, 0)}
            }

            .triangle-float1 {
                animation: float1 5s infinite;
            }

            @keyframes float2 {
                0%{transform: translate(0, 0)}
                50%{transform: translate(-5px, -5px)}
                100%{transform: translate(0, 0)}
            }

            .triangle-float2 {
                animation: float2 4s infinite;
            }

            @keyframes float3 {
                0%{transform: translate(0, 0)}
                50%{transform: translate(0, -10px)}
                100%{transform: translate(0, 0)}
            }

            .triangle-float3 {
                animation: float3 6s infinite;
            }
        </style></defs></svg>