<svg xmlns="http://www.w3.org/2000/svg" version="1.1" xmlns:xlink="http://www.w3.org/1999/xlink" xmlns:svgjs="http://svgjs.com/svgjs" width="1440" height="800" preserveAspectRatio="none" viewBox="0 0 1440 800"><g mask="url(&quot;#SvgjsMask1045&quot;)" fill="none"><rect width="1440" height="800" x="0" y="0" fill="#0e2a47"></rect><path d="M389.51 777.46 a182.58 182.58 0 1 0 365.16 0 a182.58 182.58 0 1 0 -365.16 0z" fill="rgba(28, 83, 142, 0.4)" class="triangle-float3"></path><path d="M1385.723,704.669C1423.098,705.284,1463.444,701.295,1484.61,670.485C1508.32,635.972,1510.344,589.792,1489.652,553.389C1468.736,516.591,1427.906,493.021,1385.723,496.513C1347.982,499.637,1326.029,535.212,1307.859,568.438C1290.701,599.814,1274.571,636.273,1292.316,667.321C1310.15,698.524,1349.788,704.078,1385.723,704.669" fill="rgba(28, 83, 142, 0.4)" class="triangle-float2"></path><path d="M415.12,881.987C477.421,885.783,546.589,872.873,578.071,818.977C609.738,764.765,589.04,696.767,553.575,644.96C522.79,599.99,469.617,580.573,415.12,580.937C361.366,581.296,307.458,600.675,279.833,646.789C251.511,694.068,255.802,753.24,283.282,801.014C310.843,848.929,359.946,878.625,415.12,881.987" fill="rgba(28, 83, 142, 0.4)" class="triangle-float1"></path><path d="M518.436,283.873C565.628,282.686,614.183,270.939,639.6,231.159C666.855,188.502,668.897,132.773,642.627,89.502C617.22,47.654,567.35,33.636,518.436,31.583C464.514,29.319,403.921,32.84,374.767,78.257C343.949,126.267,353.559,190.765,386.235,237.53C414.901,278.555,468.404,285.131,518.436,283.873" fill="rgba(28, 83, 142, 0.4)" class="triangle-float3"></path><path d="M230.942,671.344C255.917,670.606,276.473,653.971,288.999,632.352C301.564,610.666,307.796,583.357,294.074,562.384C281.191,542.694,254.39,541.65,230.942,543.618C211.43,545.256,195.027,555.568,183.836,571.636C170.237,591.16,156.455,614.457,166.619,635.97C177.822,659.683,204.727,672.119,230.942,671.344" fill="rgba(28, 83, 142, 0.4)" class="triangle-float1"></path><path d="M505.521,873.094C564.15,871.481,622.662,850.144,652.278,799.519C682.154,748.449,676.321,684.474,645.361,634.053C615.825,585.95,561.95,559.069,505.521,560.513C451.547,561.894,407.052,595.686,377.553,640.907C344.289,691.899,314.691,754.678,344.078,807.998C374.096,862.464,443.355,874.804,505.521,873.094" fill="rgba(28, 83, 142, 0.4)" class="triangle-float1"></path><path d="M1071.26 285.95 a191.38 191.38 0 1 0 382.76 0 a191.38 191.38 0 1 0 -382.76 0z" fill="rgba(28, 83, 142, 0.4)" class="triangle-float3"></path><path d="M20.468,896.869C61.882,896.83,100.253,875.786,121.67,840.34C143.867,803.603,150.44,756.371,127.138,720.325C105.268,686.495,60.748,683.31,20.468,683.793C-18.657,684.263,-60.586,689.993,-81.859,722.833C-104.721,758.125,-102.376,804.281,-81.063,840.53C-60.037,876.291,-21.016,896.908,20.468,896.869" fill="rgba(28, 83, 142, 0.4)" class="triangle-float1"></path><path d="M605.225,785.019C673.146,784.461,721.338,725.191,752.571,664.875C780.932,610.105,784.639,547.329,756.805,492.29C725.756,430.895,673.955,370.438,605.225,373.517C539.323,376.469,505.722,446.269,475.474,504.893C448.625,556.93,429.018,614.197,453.628,667.329C482.446,729.545,536.661,785.582,605.225,785.019" fill="rgba(28, 83, 142, 0.4)" class="triangle-float2"></path><path d="M678.43 481.07 a134.54 134.54 0 1 0 269.08 0 a134.54 134.54 0 1 0 -269.08 0z" fill="rgba(28, 83, 142, 0.4)" class="triangle-float2"></path></g><defs><mask id="SvgjsMask1045"><rect width="1440" height="800" fill="#ffffff"></rect></mask><style>
            @keyframes float1 {
                0%{transform: translate(0, 0)}
                50%{transform: translate(-10px, 0)}
                100%{transform: translate(0, 0)}
            }

            .triangle-float1 {
                animation: float1 5s infinite;
            }

            @keyframes float2 {
                0%{transform: translate(0, 0)}
                50%{transform: translate(-5px, -5px)}
                100%{transform: translate(0, 0)}
            }

            .triangle-float2 {
                animation: float2 4s infinite;
            }

            @keyframes float3 {
                0%{transform: translate(0, 0)}
                50%{transform: translate(0, -10px)}
                100%{transform: translate(0, 0)}
            }

            .triangle-float3 {
                animation: float3 6s infinite;
            }
        </style></defs></svg>