<svg xmlns="http://www.w3.org/2000/svg" version="1.1" xmlns:xlink="http://www.w3.org/1999/xlink" xmlns:svgjs="http://svgjs.com/svgjs" width="1500" height="560" preserveAspectRatio="none" viewBox="0 0 1500 560"><g mask="url(&quot;#SvgjsMask1029&quot;)" fill="none"><rect width="1500" height="560" x="0" y="0" fill="rgba(42, 64, 111, 1)"></rect><path d="M0,609.305C113.903,610.709,215.992,546.647,309.496,481.586C400.296,418.406,478.293,339.916,528.684,241.442C580.668,139.856,613.227,27.076,600.086,-86.279C586.747,-201.333,538.282,-313.766,454.987,-394.248C374.909,-471.622,263.711,-519.214,152.359,-518.886C51.673,-518.59,-20.748,-427.262,-115.269,-392.57C-201.067,-361.08,-314.08,-393.059,-375.316,-325.213C-436.522,-257.4,-406.812,-150.683,-415.651,-59.762C-424.027,26.398,-443.462,109.72,-425.835,194.472C-404.726,295.963,-378.887,401.683,-304.633,474.018C-223.402,553.15,-113.395,607.908,0,609.305" fill="#223359"></path><path d="M1500 1004.6600000000001C1622.919 1010.376 1743.567 1166.5610000000001 1848.33 1102.013 1952.281 1037.966 1864.107 860.509 1914.481 749.287 1964.593 638.645 2143.202 589.871 2135.181 468.675 2127.342 350.235 1966.5810000000001 311.956 1880.152 230.596 1804.421 159.30599999999998 1760.9940000000001 38.00400000000002 1658.556 20.006999999999948 1555.804 1.955000000000041 1478.651 117.358 1377.341 142.26100000000002 1268.671 168.973 1127.578 89.46600000000001 1049.571 169.70100000000002 972.76 248.707 1038.387 383.13 1036.057 493.295 1034.056 587.932 1015.164 679.374 1036.845 771.516 1062.414 880.181 1072.173 1020.3620000000001 1171.885 1070.556 1273.587 1121.751 1386.262 999.371 1500 1004.6600000000001" fill="#324d85"></path></g><defs><mask id="SvgjsMask1029"><rect width="1500" height="560" fill="#ffffff"></rect></mask></defs></svg>