
<svg xmlns="http://www.w3.org/2000/svg" version="1.1" xmlns:xlink="http://www.w3.org/1999/xlink" xmlns:svgjs="http://svgjs.com/svgjs" width="1440" height="560" preserveAspectRatio="none" viewBox="0 0 1440 560"><g mask="url(&quot;#SvgjsMask1002&quot;)" fill="none"><rect width="1440" height="560" x="0" y="0" fill="url(#SvgjsLinearGradient1003)"></rect><path d="M1440 0L834.13 0L1440 207.55z" fill="rgba(255, 255, 255, .1)"></path><path d="M834.13 0L1440 207.55L1440 214.24L819.61 0z" fill="rgba(255, 255, 255, .075)"></path><path d="M819.61 0L1440 214.24L1440 388.11L691.9200000000001 0z" fill="rgba(255, 255, 255, .05)"></path><path d="M691.9200000000001 0L1440 388.11L1440 395.63L376.57000000000005 0z" fill="rgba(255, 255, 255, .025)"></path><path d="M0 560L270.64 560L0 370.01z" fill="rgba(0, 0, 0, .1)"></path><path d="M0 370.01L270.64 560L384.79999999999995 560L0 289.75z" fill="rgba(0, 0, 0, .075)"></path><path d="M0 289.75L384.79999999999995 560L506.65999999999997 560L0 176.62z" fill="rgba(0, 0, 0, .05)"></path><path d="M0 176.62L506.65999999999997 560L1147.82 560L0 83.74000000000001z" fill="rgba(0, 0, 0, .025)"></path></g><defs><mask id="SvgjsMask1002"><rect width="1440" height="560" fill="#ffffff"></rect></mask><linearGradient x1="15.28%" y1="-39.29%" x2="84.72%" y2="139.29%" gradientUnits="userSpaceOnUse" id="SvgjsLinearGradient1003"><stop stop-color="#0e2a47" offset="0"></stop><stop stop-color="#00459e" offset="1"></stop></linearGradient></defs></svg>
