<svg xmlns="http://www.w3.org/2000/svg" version="1.1" xmlns:xlink="http://www.w3.org/1999/xlink" xmlns:svgjs="http://svgjs.com/svgjs" width="1440" height="800" preserveAspectRatio="none" viewBox="0 0 1440 800"><g mask="url(&quot;#SvgjsMask1070&quot;)" fill="none"><rect width="1440" height="800" x="0" y="0" fill="rgba(42, 64, 111, 1)"></rect><path d="M0,502.061C93.19,502.238,169.572,436.227,248.199,386.206C327.192,335.953,415.05,292.253,459.4,209.801C505.008,125.009,490.683,25.17,494.15,-71.048C498.399,-188.971,547.134,-319.262,482.011,-417.665C416.484,-516.679,284.889,-560.28,166.315,-566.417C57.453,-572.051,-26.769,-478.006,-131.968,-449.442C-240.41,-419.998,-376.728,-474.45,-458.039,-396.893C-538.853,-319.81,-514.267,-186.605,-524.151,-75.362C-533.495,29.807,-568.515,144.291,-514.166,234.812C-460.559,324.097,-339.998,337.232,-247.593,385.262C-164.95,428.218,-93.14,501.884,0,502.061" fill="#203053"></path><path d="M1440 1282.801C1549.463 1293.318 1663.523 1349.665 1762.645 1302.045 1863.539 1253.574 1934.591 1145.305 1955.204 1035.286 1974.585 931.844 1891.347 841.103 1868.245 738.428 1847.577 646.569 1876.3319999999999 544.898 1826.844 464.798 1774.067 379.375 1687.562 313.033 1590.214 288.416 1494.269 264.154 1390.733 287.119 1302.655 332.245 1222.821 373.148 1181.857 457.661 1124.795 526.873 1069.359 594.112 1005.793 652.267 972.437 732.775 931.489 831.607 875.684 940.537 911.663 1041.284 947.867 1142.66 1056.979 1198.899 1154.882 1243.653 1243.933 1284.3609999999999 1342.535 1273.437 1440 1282.801" fill="#35508b"></path></g><defs><mask id="SvgjsMask1070"><rect width="1440" height="800" fill="#ffffff"></rect></mask></defs></svg>