<svg xmlns="http://www.w3.org/2000/svg" version="1.1" xmlns:xlink="http://www.w3.org/1999/xlink" xmlns:svgjs="http://svgjs.com/svgjs" width="1440" height="560" preserveAspectRatio="none" viewBox="0 0 1440 560"><g mask="url(&quot;#SvgjsMask1001&quot;)" fill="none"><rect width="1440" height="560" x="0" y="0" fill="rgba(42, 64, 111, 1)"></rect><path d="M0,397.06C82.643,413.841,173.897,426.259,247.584,385.249C322.423,343.598,355.768,256.629,391.878,178.965C428.212,100.82,478.029,17.896,457.277,-65.747C436.798,-148.292,355.642,-199.008,285.995,-247.816C228.829,-287.877,157.575,-291.361,94.047,-320.293C16.421,-355.645,-43.426,-446.331,-128.145,-436.42C-212.008,-426.609,-274.697,-346.974,-314.481,-272.499C-350.589,-204.906,-318.332,-122.922,-335.511,-48.239C-355.003,36.501,-455.176,112.323,-421.431,192.461C-387.99,271.877,-267.944,258.674,-190.426,296.308C-124.489,328.32,-71.831,382.474,0,397.06" fill="#223359"></path><path d="M1440 1148.3600000000001C1547.444 1132.424 1600.975 1011.381 1692.867 953.4680000000001 1785.955 894.802 1919.981 898.563 1981.316 807.211 2044.08 713.731 2051.224 583.368 2012.292 477.717 1975.292 377.30899999999997 1846.513 349.108 1781.254 264.302 1709.751 171.38099999999997 1715.984 22.631999999999948 1615.549-37.86500000000001 1512.226-100.10199999999998 1373.22-93.66899999999998 1261.194-48.95799999999997 1152.623-5.625999999999976 1071.531 92.305 1022.967 198.639 980.573 291.464 1009.467 396.31899999999996 1011.232 498.352 1012.696 582.946 1013.639 663.635 1032.439 746.127 1055.682 848.117 1059.396 962.902 1133.848 1036.3809999999999 1212.787 1114.288 1330.291 1164.632 1440 1148.3600000000001" fill="#324d85"></path></g><defs><mask id="SvgjsMask1001"><rect width="1440" height="560" fill="#ffffff"></rect></mask></defs></svg>