<?xml version="1.0" encoding="utf-8"?><svg xmlns="http://www.w3.org/2000/svg" xmlns:xlink="http://www.w3.org/1999/xlink" width="1440" height="789" preserveAspectRatio="xMidYMid" viewBox="0 0 1440 789" style="z-index:1;margin-right:-2px;display:block;background-repeat-y:initial;background-repeat-x:initial;background-color:#192C55;animation-play-state:paused" ><g transform="translate(720,394.5) scale(1,1) translate(-720,-394.5)" style="transform:matrix(1, 0, 0, 1, 0, 0);animation-play-state:paused" ><defs style="animation-play-state:paused" ><path id="path-kbap864wew-1" d="M-35 -35L35 -35L35 35L-35 35Z" fill="none" stroke="inherit" stroke-width="4.333333333333334" transform="scale(0.3)" style="transform:matrix(0.3, 0, 0, 0.3, 0, 0);animation-play-state:paused" ></path>

  
<path id="path-kbap864wew-2" d="M0 -37A37 37 0 0 1 0 37A37 37 0 0 1 0 -37" fill="none" stroke="inherit" stroke-width="4.333333333333334" transform="scale(0.3)" style="transform:matrix(0.3, 0, 0, 0.3, 0, 0);animation-play-state:paused" ></path>

  
<path id="path-kbap864wew-3" d="M0 -34.641L40 34.641L-40 34.641Z" fill="none" stroke="inherit" stroke-width="4.333333333333334" transform="scale(0.3)" style="transform:matrix(0.3, 0, 0, 0.3, 0, 0);animation-play-state:paused" ></path></defs>
<path id="path0" d="M 98.40647257263726 716.4260915383169
c 0 34.55435028583727 -8.454787835896354 9.92518572040007 -18.379973556296424 9.92518572040007
S 61.646525460044415 750.9804418241541 61.646525460044415 716.4260915383169
s 8.454787835896354 -9.92518572040007 18.379973556296424 -9.92518572040007
S 98.40647257263726 681.8717412524796 98.40647257263726 716.4260915383169
z" fill="none" stroke="none" style="animation-play-state:paused" ></path>


<use xlink:href="#path-kbap864wew-1" x="0" y="0" stroke="#bbddff" transform="translate(70.8373794555664 731.4680786132812)" style="animation-play-state:paused" ></use>
<path id="path1" d="M 140.2728413692037 136.2209937753141
c 0 40.46964818811078 -9.902147960920724 11.624260649776502 -21.526408610697224 11.624260649776502
S 97.22002414780923 176.69064196342487 97.22002414780923 136.2209937753141
s 9.902147960920724 -11.624260649776502 21.526408610697224 -11.624260649776502
S 140.2728413692037 95.75134558720332 140.2728413692037 136.2209937753141
z" fill="none" stroke="none" style="animation-play-state:paused" ></path>


<use xlink:href="#path-kbap864wew-2" x="0" y="0" stroke="#aabbcc" transform="translate(139.1451873779297 152.9922332763672)" style="animation-play-state:paused" ></use>
<path id="path2" d="M 231.9559440359655 281.5106471440437
c 0 20.22790766085179 -4.949381661697778 5.810143689819132 -10.75952535151691 5.810143689819132
S 210.43689333293167 301.73855480489544 210.43689333293167 281.5106471440437
s 4.949381661697778 -5.810143689819132 10.75952535151691 -5.810143689819132
S 231.9559440359655 261.2827394831919 231.9559440359655 281.5106471440437
z" fill="none" stroke="none" style="animation-play-state:paused" ></path>


<use xlink:href="#path-kbap864wew-2" x="0" y="0" stroke="#aabbcc" transform="translate(216.0087890625 290.1496276855469)" style="animation-play-state:paused" ></use>
<path id="path3" d="M 301.555086872526 670.6554168993173
c 0 43.697003519159225 -10.691820010007042 12.55126696826914 -23.24308697827618 12.55126696826914
S 255.06891291597358 714.3524204184765 255.06891291597358 670.6554168993173
s 10.691820010007042 -12.55126696826914 23.24308697827618 -12.55126696826914
S 301.555086872526 626.958413380158 301.555086872526 670.6554168993173
z" fill="none" stroke="none" style="animation-play-state:paused" ></path>


<use xlink:href="#path-kbap864wew-1" x="0" y="0" stroke="#ddeeff" transform="translate(301.2795715332031 681.0714721679688)" style="animation-play-state:paused" ></use>
<path id="path4" d="M 412.3009451447106 137.44975530045394
c 0 28.67368192834397 -7.015900897360758 8.23605757516263 -15.251958472523388 8.23605757516263
S 381.7970281996639 166.1234372287979 381.7970281996639 137.44975530045394
s 7.015900897360758 -8.23605757516263 15.251958472523388 -8.23605757516263
S 412.3009451447106 108.77607337210998 412.3009451447106 137.44975530045394
z" fill="none" stroke="none" style="animation-play-state:paused" ></path>


<use xlink:href="#path-kbap864wew-1" x="0" y="0" stroke="#bbddff" transform="translate(404.14544677734375 149.47291564941406)" style="animation-play-state:paused" ></use>
<path id="path5" d="M 455.20065451261263 407.49329404404324
c 0 35.41035160298783 -8.664234966688511 10.171058439156079 -18.83529340584459 10.171058439156079
S 417.53006770092344 442.90364564703106 417.53006770092344 407.49329404404324
s 8.664234966688511 -10.171058439156079 18.83529340584459 -10.171058439156079
S 455.20065451261263 372.0829424410554 455.20065451261263 407.49329404404324
z" fill="none" stroke="none" style="animation-play-state:paused" ></path>


<use xlink:href="#path-kbap864wew-2" x="0" y="0" stroke="#ddeeff" transform="translate(429.9779052734375 420.39154052734375)" style="animation-play-state:paused" ></use>
<path id="path6" d="M 524.6066625533487 232.16773771804472
c 0 24.36708533787801 -5.962159178416959 6.9990564268373 -12.96121560525426 6.9990564268373
S 498.6842313428401 256.53482305592274 498.6842313428401 232.16773771804472
s 5.962159178416959 -6.9990564268373 12.96121560525426 -6.9990564268373
S 524.6066625533487 207.8006523801667 524.6066625533487 232.16773771804472
z" fill="none" stroke="none" style="animation-play-state:paused" ></path>


<use xlink:href="#path-kbap864wew-1" x="0" y="0" stroke="#bbddff" transform="translate(516.8721923828125 241.70338439941406)" style="animation-play-state:paused" ></use>
<path id="path7" d="M 594.1940098728093 634.5997782580584
c 0 49.8859855395369 -12.206145397971792 14.328953293271237 -26.53509869124303 14.328953293271237
S 541.1238124903233 684.4857637975954 541.1238124903233 634.5997782580584
s 12.206145397971792 -14.328953293271237 26.53509869124303 -14.328953293271237
S 594.1940098728093 584.7137927185215 594.1940098728093 634.5997782580584
z" fill="none" stroke="none" style="animation-play-state:paused" ></path>


<use xlink:href="#path-kbap864wew-1" x="0" y="0" stroke="#bbddff" transform="translate(565.3696899414062 649.2180786132812)" style="animation-play-state:paused" ></use>
<path id="path8" d="M 729.6148741962905 535.421010213304
c 0 49.319191868382006 -12.067461840136021 14.166150855811853 -26.233612695947876 14.166150855811853
S 677.1476488043949 584.740202081686 677.1476488043949 535.421010213304
s 12.067461840136021 -14.166150855811853 26.233612695947876 -14.166150855811853
S 729.6148741962905 486.10181834492204 729.6148741962905 535.421010213304
z" fill="none" stroke="none" style="animation-play-state:paused" ></path>


<use xlink:href="#path-kbap864wew-1" x="0" y="0" stroke="#aabbcc" transform="translate(696.1580810546875 552.197021484375)" style="animation-play-state:paused" ></use>
<path id="path9" d="M 788.7059931061025 686.1275317262941
c 0 37.019162428159 -9.057880168592094 10.633163676173329 -19.691043844765424 10.633163676173329
S 749.3239054165716 723.1466941544531 749.3239054165716 686.1275317262941
s 9.057880168592094 -10.633163676173329 19.691043844765424 -10.633163676173329
S 788.7059931061025 649.1083692981351 788.7059931061025 686.1275317262941
z" fill="none" stroke="none" style="animation-play-state:paused" ></path>


<use xlink:href="#path-kbap864wew-1" x="0" y="0" stroke="#ddeeff" transform="translate(769.9853515625 696.832275390625)" style="animation-play-state:paused" ></use>
<path id="path10" d="M 860.6893125993461 21.78137569585707
c 0 57.96577288208187 -14.183114641360456 16.64974327464054 -30.832857916000993 16.64974327464054
S 799.0235967673441 79.74714857793894 799.0235967673441 21.78137569585707
s 14.183114641360456 -16.64974327464054 30.832857916000993 -16.64974327464054
S 860.6893125993461 -36.1843971862248 860.6893125993461 21.78137569585707
z" fill="none" stroke="none" style="animation-play-state:paused" ></path>


<use xlink:href="#path-kbap864wew-2" x="0" y="0" stroke="#bbddff" transform="translate(843.092529296875 45.136478424072266)" style="animation-play-state:paused" ></use>
<path id="path11" d="M 932.9800774505906 316.98621586938293
c 0 37.81502953384916 -9.25261360934607 10.861763802275822 -20.114377411621895 10.861763802275822
S 892.7513226273467 354.8012454032321 892.7513226273467 316.98621586938293
s 9.25261360934607 -10.861763802275822 20.114377411621895 -10.861763802275822
S 932.9800774505906 279.1711863355338 932.9800774505906 316.98621586938293
z" fill="none" stroke="none" style="animation-play-state:paused" ></path>


<use xlink:href="#path-kbap864wew-2" x="0" y="0" stroke="#bbddff" transform="translate(912.0170288085938 327.9018859863281)" style="animation-play-state:paused" ></use>
<path id="path12" d="M 1021.8436465135512 340.23819132402923
c 0 52.91199549756621 -12.946552089830028 15.198126366322208 -28.144678456152235 15.198126366322208
S 965.5542896012466 393.1501868215954 965.5542896012466 340.23819132402923
s 12.946552089830028 -15.198126366322208 28.144678456152235 -15.198126366322208
S 1021.8436465135512 287.32619582646305 1021.8436465135512 340.23819132402923
z" fill="none" stroke="none" style="animation-play-state:paused" ></path>


<use xlink:href="#path-kbap864wew-2" x="0" y="0" stroke="#bbddff" transform="translate(976.4046630859375 365.98699951171875)" style="animation-play-state:paused" ></use>
<path id="path13" d="M 1074.3203230634922 309.2077494999824
c 0 39.07433614271631 -9.56074182215399 11.223479530354686 -20.784221352508677 11.223479530354686
S 1032.7518803584749 348.28208564269875 1032.7518803584749 309.2077494999824
s 9.56074182215399 -11.223479530354686 20.784221352508677 -11.223479530354686
S 1074.3203230634922 270.1334133572661 1074.3203230634922 309.2077494999824
z" fill="none" stroke="none" style="animation-play-state:paused" ></path>


<use xlink:href="#path-kbap864wew-1" x="0" y="0" stroke="#aabbcc" transform="translate(1049.359375 321.5834655761719)" style="animation-play-state:paused" ></use>
<path id="path14" d="M 1137.98128954521 306.94515926127093
c 0 34.00727992831501 -8.320930195226012 9.768048490047928 -18.08897868527394 9.768048490047928
S 1101.803332174662 340.95243918958596 1101.803332174662 306.94515926127093
s 8.320930195226012 -9.768048490047928 18.08897868527394 -9.768048490047928
S 1137.98128954521 272.9378793329559 1137.98128954521 306.94515926127093
z" fill="none" stroke="none" style="animation-play-state:paused" ></path>


<use xlink:href="#path-kbap864wew-2" x="0" y="0" stroke="#aabbcc" transform="translate(1137.5299072265625 317.8544006347656)" style="animation-play-state:paused" ></use>
<path id="path15" d="M 1231.251410600456 410.11915703740476
c 0 56.71703930070472 -13.877573445917111 16.291064479989654 -30.168637925906765 16.291064479989654
S 1170.9141347486425 466.83619633810946 1170.9141347486425 410.11915703740476
s 13.877573445917111 -16.291064479989654 30.168637925906765 -16.291064479989654
S 1231.251410600456 353.40211773670006 1231.251410600456 410.11915703740476
z" fill="none" stroke="none" style="animation-play-state:paused" ></path>


<use xlink:href="#path-kbap864wew-1" x="0" y="0" stroke="#ddeeff" transform="translate(1230.8978271484375 423.57550048828125)" style="animation-play-state:paused" ></use>
<path id="path16" d="M 1361.401878521274 97.88511248050935
c 0 57.21280815654678 -13.998878591495487 16.43346617262514 -30.43234476412063 16.43346617262514
S 1300.5371889930327 155.09792063705612 1300.5371889930327 97.88511248050935
s 13.998878591495487 -16.43346617262514 30.43234476412063 -16.43346617262514
S 1361.401878521274 40.67230432396257 1361.401878521274 97.88511248050935
z" fill="none" stroke="none" style="animation-play-state:paused" ></path>


<use xlink:href="#path-kbap864wew-3" x="0" y="0" stroke="#bbddff" transform="translate(1340.2752685546875 117.98116302490234)" style="animation-play-state:paused" ></use>
<path id="path17" d="M 1380.5208279242665 661.84989384475
c 0 63.16658234318086 -15.455653126522975 18.143592800700887 -33.59924592722386 18.143592800700887
S 1313.322336069819 725.0164761879308 1313.322336069819 661.84989384475
s 15.455653126522975 -18.143592800700887 33.59924592722386 -18.143592800700887
S 1380.5208279242665 598.6833115015692 1380.5208279242665 661.84989384475
z" fill="none" stroke="none" style="animation-play-state:paused" ></path>


<use xlink:href="#path-kbap864wew-3" x="0" y="0" stroke="#aabbcc" transform="translate(1348.5247802734375 680.1082153320312)" style="animation-play-state:paused" ></use></g></svg>