<svg xmlns="http://www.w3.org/2000/svg" version="1.1" xmlns:xlink="http://www.w3.org/1999/xlink" xmlns:svgjs="http://svgjs.com/svgjs" width="1440" height="560" preserveAspectRatio="none" viewBox="0 0 1440 560"><g mask="url(&quot;#SvgjsMask1038&quot;)" fill="none"><rect width="1440" height="560" x="0" y="0" fill="#0e2a47"></rect><path d="M1191 552L1190 390" stroke-width="8" stroke="url(#SvgjsLinearGradient1039)" stroke-linecap="round" class="Down"></path><path d="M516 409L515 9" stroke-width="10" stroke="url(#SvgjsLinearGradient1040)" stroke-linecap="round" class="Up"></path><path d="M365 484L364 779" stroke-width="6" stroke="url(#SvgjsLinearGradient1039)" stroke-linecap="round" class="Down"></path><path d="M1093 474L1092 798" stroke-width="8" stroke="url(#SvgjsLinearGradient1040)" stroke-linecap="round" class="Up"></path><path d="M851 151L850 -174" stroke-width="8" stroke="url(#SvgjsLinearGradient1040)" stroke-linecap="round" class="Up"></path><path d="M688 460L687 229" stroke-width="8" stroke="url(#SvgjsLinearGradient1040)" stroke-linecap="round" class="Up"></path><path d="M919 229L918 578" stroke-width="6" stroke="url(#SvgjsLinearGradient1039)" stroke-linecap="round" class="Down"></path><path d="M549 305L548 -51" stroke-width="8" stroke="url(#SvgjsLinearGradient1039)" stroke-linecap="round" class="Down"></path><path d="M1028 116L1027 -37" stroke-width="8" stroke="url(#SvgjsLinearGradient1040)" stroke-linecap="round" class="Up"></path><path d="M753 37L752 -271" stroke-width="10" stroke="url(#SvgjsLinearGradient1039)" stroke-linecap="round" class="Down"></path><path d="M38 46L37 -126" stroke-width="6" stroke="url(#SvgjsLinearGradient1039)" stroke-linecap="round" class="Down"></path><path d="M755 536L754 727" stroke-width="10" stroke="url(#SvgjsLinearGradient1040)" stroke-linecap="round" class="Up"></path><path d="M1184 178L1183 340" stroke-width="8" stroke="url(#SvgjsLinearGradient1040)" stroke-linecap="round" class="Up"></path><path d="M372 330L371 45" stroke-width="8" stroke="url(#SvgjsLinearGradient1040)" stroke-linecap="round" class="Up"></path><path d="M668 225L667 78" stroke-width="8" stroke="url(#SvgjsLinearGradient1040)" stroke-linecap="round" class="Up"></path><path d="M1158 492L1157 84" stroke-width="8" stroke="url(#SvgjsLinearGradient1039)" stroke-linecap="round" class="Down"></path><path d="M1409 25L1408 317" stroke-width="6" stroke="url(#SvgjsLinearGradient1039)" stroke-linecap="round" class="Down"></path><path d="M889 404L888 723" stroke-width="8" stroke="url(#SvgjsLinearGradient1039)" stroke-linecap="round" class="Down"></path><path d="M845 195L844 473" stroke-width="8" stroke="url(#SvgjsLinearGradient1040)" stroke-linecap="round" class="Up"></path><path d="M909 50L908 -273" stroke-width="10" stroke="url(#SvgjsLinearGradient1039)" stroke-linecap="round" class="Down"></path><path d="M1428 210L1427 463" stroke-width="8" stroke="url(#SvgjsLinearGradient1040)" stroke-linecap="round" class="Up"></path><path d="M129 99L128 -303" stroke-width="6" stroke="url(#SvgjsLinearGradient1039)" stroke-linecap="round" class="Down"></path><path d="M639 516L638 288" stroke-width="8" stroke="url(#SvgjsLinearGradient1040)" stroke-linecap="round" class="Up"></path><path d="M929 431L928 264" stroke-width="6" stroke="url(#SvgjsLinearGradient1039)" stroke-linecap="round" class="Down"></path><path d="M1234 171L1233 -188" stroke-width="10" stroke="url(#SvgjsLinearGradient1039)" stroke-linecap="round" class="Down"></path><path d="M1333 381L1332 184" stroke-width="8" stroke="url(#SvgjsLinearGradient1040)" stroke-linecap="round" class="Up"></path><path d="M1043 371L1042 678" stroke-width="6" stroke="url(#SvgjsLinearGradient1040)" stroke-linecap="round" class="Up"></path><path d="M766 348L765 170" stroke-width="8" stroke="url(#SvgjsLinearGradient1040)" stroke-linecap="round" class="Up"></path><path d="M815 525L814 380" stroke-width="10" stroke="url(#SvgjsLinearGradient1040)" stroke-linecap="round" class="Up"></path><path d="M227 369L226 137" stroke-width="6" stroke="url(#SvgjsLinearGradient1040)" stroke-linecap="round" class="Up"></path><path d="M249 92L248 482" stroke-width="10" stroke="url(#SvgjsLinearGradient1040)" stroke-linecap="round" class="Up"></path><path d="M87 497L86 112" stroke-width="10" stroke="url(#SvgjsLinearGradient1040)" stroke-linecap="round" class="Up"></path><path d="M1053 255L1052 -57" stroke-width="6" stroke="url(#SvgjsLinearGradient1039)" stroke-linecap="round" class="Down"></path><path d="M1227 474L1226 674" stroke-width="10" stroke="url(#SvgjsLinearGradient1039)" stroke-linecap="round" class="Down"></path><path d="M1055 479L1054 190" stroke-width="10" stroke="url(#SvgjsLinearGradient1040)" stroke-linecap="round" class="Up"></path><path d="M302 534L301 267" stroke-width="8" stroke="url(#SvgjsLinearGradient1040)" stroke-linecap="round" class="Up"></path></g><defs><mask id="SvgjsMask1038"><rect width="1440" height="560" fill="#ffffff"></rect></mask><linearGradient x1="0%" y1="0%" x2="0%" y2="100%" id="SvgjsLinearGradient1039"><stop stop-color="rgba(31, 54, 104, 0)" offset="0"></stop><stop stop-color="rgba(31, 54, 104, 1)" offset="1"></stop></linearGradient><linearGradient x1="0%" y1="100%" x2="0%" y2="0%" id="SvgjsLinearGradient1040"><stop stop-color="rgba(31, 54, 104, 0)" offset="0"></stop><stop stop-color="rgba(31, 54, 104, 1)" offset="1"></stop></linearGradient></defs></svg>