<svg xmlns="http://www.w3.org/2000/svg" version="1.1" xmlns:xlink="http://www.w3.org/1999/xlink" xmlns:svgjs="http://svgjs.com/svgjs" width="1440" height="1000" preserveAspectRatio="none" viewBox="0 0 1440 1000"><g mask="url(&quot;#SvgjsMask1023&quot;)" fill="none"><rect width="1440" height="1000" x="0" y="0" fill="#0e2a47"></rect><path d="M841.4,898.98C914.642,895.009,973.075,843.811,1008.371,779.512C1042.181,717.92,1050.883,643.29,1014.877,582.955C979.65,523.925,910.136,500.623,841.4,499.72C770.73,498.792,699.286,519.643,659.848,578.292C615.57,644.139,600.732,730.439,639.825,799.491C679.391,869.378,761.208,903.327,841.4,898.98" fill="rgba(28, 83, 142, 0.4)" class="triangle-float2"></path><path d="M828.061,724.609C904.773,726.648,991.243,718.238,1030.272,652.165C1069.724,585.376,1040.48,502.182,997.651,437.506C959.715,380.219,896.611,351.474,828.061,346.807C748.074,341.362,655.621,343.343,613.133,411.33C569.099,481.791,596.647,573.372,643.652,641.887C684.502,701.429,755.878,722.69,828.061,724.609" fill="rgba(28, 83, 142, 0.4)" class="triangle-float3"></path><path d="M620.114,317.663C658.051,315.614,692.718,295.046,710.35,261.394C726.846,229.91,717.7,193.945,701.518,162.298C683.251,126.574,660.078,88.5,620.114,84.924C575.109,80.897,531.564,105.997,508.851,145.059C486.024,184.318,486.648,233.978,511.253,272.148C534.093,307.58,578.02,319.936,620.114,317.663" fill="rgba(28, 83, 142, 0.4)" class="triangle-float2"></path><path d="M216.531,163.714C252.039,165.543,287.62,150.376,305.865,119.859C324.548,88.61,321.8,49.545,303.664,17.975C285.456,-13.72,253.078,-34.997,216.531,-35.65C178.839,-36.323,140.906,-18.848,123.834,14.763C107.928,46.077,123.276,81.589,141.833,111.408C159.047,139.068,183.995,162.038,216.531,163.714" fill="rgba(28, 83, 142, 0.4)" class="triangle-float3"></path><path d="M510.195,967.675C547.629,970.002,580.774,942.376,596.928,908.527C611.208,878.605,598.531,845.734,582.145,816.911C565.495,787.624,543.884,756.114,510.195,755.96C476.343,755.805,451.973,785.841,437.097,816.249C424.128,842.76,427.492,872.215,440.322,898.793C455.561,930.361,475.209,965.5,510.195,967.675" fill="rgba(28, 83, 142, 0.4)" class="triangle-float2"></path><path d="M158.404,509.087C217.426,508.881,271.417,477.605,301.762,426.981C333.024,374.827,340.166,309.486,309.534,256.959C279.104,204.779,218.747,183.893,158.404,181.153C91.621,178.12,15.352,184.43,-18.527,242.062C-52.679,300.158,-23.921,371.81,13.303,427.988C46.106,477.494,99.017,509.294,158.404,509.087" fill="rgba(28, 83, 142, 0.4)" class="triangle-float3"></path><path d="M620.484,1139.354C707.866,1137.709,807.984,1139.819,853.629,1065.289C900.513,988.737,866.419,892.248,818.19,816.537C774.07,747.276,702.583,697.458,620.484,699.294C541.187,701.067,481.377,758.959,437.524,825.051C386.587,901.82,325.269,994.742,371.619,1074.365C417.848,1153.781,528.608,1141.084,620.484,1139.354" fill="rgba(28, 83, 142, 0.4)" class="triangle-float2"></path><path d="M957.13,264.479C983.732,264.663,1002.123,240.887,1014.985,217.6C1027.311,195.284,1033.806,169.326,1022.231,146.611C1009.616,121.854,984.914,104.375,957.13,104.059C928.843,103.738,902.087,119.809,889.416,145.102C877.801,168.286,887.85,194.254,900.644,216.809C913.672,239.777,930.725,264.296,957.13,264.479" fill="rgba(28, 83, 142, 0.4)" class="triangle-float1"></path><path d="M1224.798,485.714C1257.588,485.138,1285.156,463.848,1301.639,435.496C1318.22,406.975,1323.431,372.27,1307.564,343.346C1291.13,313.389,1258.96,294.746,1224.798,295.42C1191.703,296.073,1163.93,317.768,1147.503,346.505C1131.213,375.003,1127.2,409.582,1143.134,438.28C1159.513,467.778,1191.063,486.307,1224.798,485.714" fill="rgba(28, 83, 142, 0.4)" class="triangle-float2"></path><path d="M1472.217,1156.683C1540.613,1158.593,1607.63,1125.23,1640.476,1065.206C1672.218,1007.201,1657.517,937.408,1623.108,880.944C1590.267,827.053,1535.325,789.469,1472.217,789.099C1408.487,788.726,1349.866,823.832,1318.234,879.159C1286.832,934.084,1288.786,1000.92,1319.482,1056.243C1351.167,1113.35,1406.934,1154.86,1472.217,1156.683" fill="rgba(28, 83, 142, 0.4)" class="triangle-float2"></path></g><defs><mask id="SvgjsMask1023"><rect width="1440" height="1000" fill="#ffffff"></rect></mask><style>
            @keyframes float1 {
                0%{transform: translate(0, 0)}
                50%{transform: translate(-10px, 0)}
                100%{transform: translate(0, 0)}
            }

            .triangle-float1 {
                animation: float1 5s infinite;
            }

            @keyframes float2 {
                0%{transform: translate(0, 0)}
                50%{transform: translate(-5px, -5px)}
                100%{transform: translate(0, 0)}
            }

            .triangle-float2 {
                animation: float2 4s infinite;
            }

            @keyframes float3 {
                0%{transform: translate(0, 0)}
                50%{transform: translate(0, -10px)}
                100%{transform: translate(0, 0)}
            }

            .triangle-float3 {
                animation: float3 6s infinite;
            }
        </style></defs></svg>