<?xml version="1.0" encoding="utf-8"?>
<!-- Generator: Adobe Illustrator 27.0.0, SVG Export Plug-In . SVG Version: 6.00 Build 0)  -->
<svg version="1.1" id="print" xmlns="http://www.w3.org/2000/svg" xmlns:xlink="http://www.w3.org/1999/xlink" x="0px" y="0px"
	 viewBox="0 0 281.57 531" style="enable-background:new 0 0 281.57 531;" xml:space="preserve">
<style type="text/css">
	.st0{fill:#223764;}
	.st1{fill:#0E0D0E;}
	.st2{fill:url(#SVGID_1_);}
	.st3{fill:#FFFFFF;}
	.st4{fill:#243F70;}
	.st5{fill:none;stroke:#243F70;stroke-miterlimit:10;}
	.st6{fill:#B2B1BA;}
	.st7{font-family:'FontsFreeNetProximaNovaBold';}
	.st8{font-size:8.9906px;}
	.st9{fill:#F59C41;}
	.st10{font-size:9.9249px;}
	.st11{fill:#223764;stroke:#D3D0CF;stroke-miterlimit:10;}
	.st12{fill:#3D5E8E;}
	.st13{fill:#ECECEC;}
	.st14{font-size:11.1171px;}
	.st15{fill:#78C143;}
	.st16{fill:#EE2427;}
	.st17{font-size:7.5328px;}
	.st18{fill:#B7B6B6;}
	.st19{fill:#4579BD;}
	.st20{fill:#307FC2;}
	.st21{opacity:0.5;fill:none;stroke:#F9FCFD;stroke-miterlimit:10;}
	.st22{fill:#FFFFFF;stroke:#B6E2EB;stroke-linecap:round;stroke-linejoin:round;stroke-miterlimit:10;}
	.st23{font-size:6.9067px;}
	.st24{font-size:13.5023px;}
	.st25{font-size:7px;}
	.st26{fill:#FFFDFC;}
	.st27{fill:#FCFCFD;}
	.st28{fill:#234071;}
	.st29{fill:#B76828;}
	.st30{fill:#F49C42;}
	.st31{font-size:24.7737px;}
</style>
<path class="st0" d="M234.14,301H46.71c-8.21,0-14.86-6.65-14.86-14.86v-25.71c0-8.21,6.65-14.86,14.86-14.86h187.43
	c8.21,0,14.86,6.65,14.86,14.86v25.71C249,294.35,242.35,301,234.14,301z"/>
<path class="st1" d="M267.57,129.52v35.63c0,0.79-0.64,1.43-1.44,1.43h-1.31v-38.5h1.31C266.92,128.09,267.57,128.73,267.57,129.52z
	"/>
<path class="st1" d="M264.83,166.58v326.4c0,17.29-14.02,31.31-31.32,31.31H48.07c-17.3,0-31.32-14.02-31.32-31.31V201.19v-38.5
	v-9.46v-38.5V92.46V80.38V38.02c0-17.29,14.02-31.31,31.32-31.31h29.6v8.26H48.73c-13.69,0-24.81,11.11-24.81,24.81v451.43
	c0,13.7,11.12,24.81,24.81,24.81h184.12c13.7,0,24.79-11.11,24.79-24.81V39.79c0-13.7-11.09-24.81-24.79-24.81H203.9V6.71h29.6
	c17.3,0,31.32,14.02,31.32,31.31v90.06V166.58z"/>
<path class="st1" d="M203.9,14.98v8.39c0,6.94-5.62,12.55-12.55,12.55H90.22c-6.93,0-12.55-5.61-12.55-12.55v-8.39V6.71H203.9V14.98
	z M172.38,23.92c0-1.52-1.22-2.75-2.74-2.75c-1.52,0-2.74,1.23-2.74,2.75c0,1.51,1.22,2.74,2.74,2.74
	C171.16,26.66,172.38,25.42,172.38,23.92z M158.84,23.92c0-1.35-1.09-2.42-2.43-2.42h-31.25c-1.33,0-2.42,1.08-2.42,2.42
	c0,1.33,1.09,2.42,2.42,2.42h31.25C157.75,26.34,158.84,25.25,158.84,23.92z"/>
<g>
	<linearGradient id="SVGID_1_" gradientUnits="userSpaceOnUse" x1="5.1441" y1="500.4378" x2="276.4269" y2="30.5621">
		<stop  offset="0" style="stop-color:#BFC1BF"/>
		<stop  offset="0.0391" style="stop-color:#BDBFBD"/>
		<stop  offset="0.0614" style="stop-color:#B5B6B5"/>
		<stop  offset="0.0794" style="stop-color:#A7A8A7"/>
		<stop  offset="0.0951" style="stop-color:#939593"/>
		<stop  offset="0.1094" style="stop-color:#7A7B7A"/>
		<stop  offset="0.1226" style="stop-color:#5B5B5B"/>
		<stop  offset="0.135" style="stop-color:#353635"/>
		<stop  offset="0.1465" style="stop-color:#0C0C0C"/>
		<stop  offset="0.1493" style="stop-color:#000000"/>
		<stop  offset="0.2055" style="stop-color:#020202"/>
		<stop  offset="0.226" style="stop-color:#090909"/>
		<stop  offset="0.2406" style="stop-color:#141514"/>
		<stop  offset="0.2525" style="stop-color:#252625"/>
		<stop  offset="0.2626" style="stop-color:#3B3C3B"/>
		<stop  offset="0.2716" style="stop-color:#565756"/>
		<stop  offset="0.2798" style="stop-color:#767776"/>
		<stop  offset="0.287" style="stop-color:#9A9C9A"/>
		<stop  offset="0.2931" style="stop-color:#BFC1BF"/>
		<stop  offset="0.5486" style="stop-color:#000000"/>
		<stop  offset="0.6065" style="stop-color:#020202"/>
		<stop  offset="0.6275" style="stop-color:#090909"/>
		<stop  offset="0.6426" style="stop-color:#141514"/>
		<stop  offset="0.6548" style="stop-color:#252625"/>
		<stop  offset="0.6652" style="stop-color:#3B3C3B"/>
		<stop  offset="0.6745" style="stop-color:#565756"/>
		<stop  offset="0.6829" style="stop-color:#767776"/>
		<stop  offset="0.6903" style="stop-color:#9A9C9A"/>
		<stop  offset="0.6966" style="stop-color:#BFC1BF"/>
		<stop  offset="0.8746" style="stop-color:#000000"/>
		<stop  offset="0.8925" style="stop-color:#040404"/>
		<stop  offset="0.9106" style="stop-color:#101010"/>
		<stop  offset="0.9288" style="stop-color:#242424"/>
		<stop  offset="0.947" style="stop-color:#404140"/>
		<stop  offset="0.9652" style="stop-color:#646564"/>
		<stop  offset="0.9832" style="stop-color:#909190"/>
		<stop  offset="1" style="stop-color:#BFC1BF"/>
	</linearGradient>
	<path class="st2" d="M231.19,521.78H50.38c-17.24,0-31.26-14.19-31.26-31.64V40.86c0-17.44,14.02-31.63,31.26-31.63h180.81
		c17.24,0,31.26,14.19,31.26,31.63v449.28C262.45,507.59,248.43,521.78,231.19,521.78z M50.38,10.66
		c-16.44,0-29.82,13.55-29.82,30.2v449.28c0,16.65,13.38,30.2,29.82,30.2h180.81c16.44,0,29.82-13.55,29.82-30.2V40.86
		c0-16.65-13.38-30.2-29.82-30.2H50.38z"/>
</g>
<path class="st3" d="M169.64,21.16c1.52,0,2.74,1.23,2.74,2.75c0,1.51-1.22,2.74-2.74,2.74c-1.52,0-2.74-1.23-2.74-2.74
	C166.9,22.4,168.12,21.16,169.64,21.16z"/>
<path class="st3" d="M156.41,21.49c1.33,0,2.43,1.08,2.43,2.42c0,1.33-1.09,2.42-2.43,2.42h-31.25c-1.33,0-2.42-1.09-2.42-2.42
	c0-1.35,1.09-2.42,2.42-2.42H156.41z"/>
<path class="st1" d="M16.74,162.69v38.5h-1.31c-0.79,0-1.43-0.64-1.43-1.44v-35.63c0-0.79,0.64-1.43,1.43-1.43H16.74z"/>
<path class="st1" d="M16.74,114.74v38.5h-1.31c-0.79,0-1.43-0.64-1.43-1.43v-35.63c0-0.79,0.64-1.43,1.43-1.43H16.74z"/>
<path class="st1" d="M16.74,80.38v12.08h-1.31c-0.79,0-1.43-0.64-1.43-1.43v-9.21c0-0.79,0.64-1.43,1.43-1.43H16.74z"/>
<g>
	<path class="st4" d="M224.34,29.36c-0.44,0-0.8,0.36-0.8,0.8c0,0.44,0.36,0.8,0.8,0.8c0.44,0,0.8-0.36,0.8-0.8
		C225.13,29.72,224.78,29.36,224.34,29.36z M222.52,28.34l0.7,0.7c0.29-0.29,0.68-0.46,1.12-0.46c0.44,0,0.83,0.18,1.12,0.46
		l0.7-0.7c-0.47-0.47-1.11-0.75-1.82-0.75C223.63,27.58,222.98,27.87,222.52,28.34z M220.98,26.8l0.7,0.7
		c0.68-0.68,1.62-1.1,2.66-1.1c1.04,0,1.98,0.42,2.66,1.1l0.7-0.7c-0.86-0.86-2.05-1.39-3.36-1.39
		C223.03,25.41,221.84,25.94,220.98,26.8z M224.34,23.47c-1.85,0-3.52,0.75-4.73,1.96l0.7,0.7c1.03-1.03,2.46-1.67,4.03-1.67
		c1.57,0,3,0.64,4.03,1.67l0.7-0.7C227.85,24.22,226.18,23.47,224.34,23.47z"/>
	<path class="st4" d="M216.35,24.55v6.12h0.99v-6.12H216.35z M214.5,30.68h0.99v-5h-0.99V30.68z M212.65,30.68h0.99V26.8h-0.99
		V30.68z M210.8,30.68h0.99v-2.76h-0.99V30.68z M208.95,30.68h0.99v-1.64h-0.99V30.68z"/>
	<path class="st4" d="M232.2,26.23v3.16c0,0.44,0.36,0.79,0.79,0.79h7.29v-4.75h-7.29C232.55,25.43,232.2,25.79,232.2,26.23z
		 M243.54,27.03v-0.9c0-0.73-0.59-1.32-1.32-1.32h-9.32c-0.73,0-1.32,0.59-1.32,1.32v3.35c0,0.73,0.59,1.32,1.32,1.32h9.32
		c0.73,0,1.32-0.59,1.32-1.32v-0.9h0.59v-1.55H243.54z M243.29,29.48c0,0.59-0.48,1.07-1.07,1.07h-9.32c-0.59,0-1.07-0.48-1.07-1.07
		v-3.35c0-0.59,0.48-1.07,1.07-1.07h9.32c0.59,0,1.07,0.48,1.07,1.07V29.48z"/>
</g>
<g>
	<g>
		<rect x="34.79" y="23.47" class="st4" width="5.59" height="1.44"/>
		<rect x="34.79" y="28.46" class="st4" width="9.8" height="1.44"/>
		<rect x="34.79" y="33.46" class="st4" width="13.89" height="1.44"/>
	</g>
</g>
<line class="st5" x1="23.93" y1="469.14" x2="257.64" y2="469.14"/>
<line class="st5" x1="23.93" y1="312.41" x2="257.64" y2="312.41"/>
<g>
	<path class="st4" d="M138.21,81c1.17-1.44,2.13-3.02,2.22-4.4c0,0,1.02,2.11,2.55,4.4h12.1c-2.77-2.22-5.61-4.64-6.17-5.68
		c-0.99-1.84-1.71-8.13-1.89-9.77c-0.03-0.27-0.09-0.53-0.18-0.78l-1.9-5.24c-0.02-0.06-0.04-0.12-0.05-0.18
		c-0.18-1.05-2.1-11.29-2.59-11.84c-0.52-0.59-1.01-0.53-1.51-0.26c0,0-1.42-1.43-1.93,1.17l-1.57,5.45l-1.92,6.04
		c0,0-1.47,3.02-1.65,3.92c-0.18,0.9-0.87,8.74-1.15,9.69c-0.19,0.66-1.28,2.63-2.75,4.18c0,0-1.51,1.58-3.35,3.29H138.21z"/>
	<path class="st3" d="M140.46,53.71c0,0,0.97,12.66,0,18.29C140.46,72,139.34,65.74,140.46,53.71"/>
	<path class="st4" d="M159.59,84.31l3.12,3.93v-2.72c0-0.38-0.05-0.64-0.16-0.78c-0.15-0.18-0.4-0.27-0.75-0.26v-0.16h2.1v0.16
		c-0.27,0.04-0.45,0.08-0.54,0.13c-0.09,0.06-0.16,0.15-0.22,0.27c-0.05,0.12-0.08,0.34-0.08,0.64v5.28h-0.16l-4.28-5.29v4.04
		c0,0.37,0.08,0.62,0.25,0.74c0.17,0.13,0.36,0.19,0.58,0.19h0.15v0.16h-2.26v-0.16c0.35,0,0.59-0.07,0.73-0.22
		c0.14-0.14,0.21-0.38,0.21-0.72v-4.49l-0.13-0.16c-0.13-0.17-0.25-0.29-0.36-0.34c-0.1-0.05-0.25-0.08-0.44-0.09v-0.16H159.59z
		 M156.28,90.49v0.16h-3.3v-0.16h0.21c0.18,0,0.33-0.03,0.44-0.1c0.08-0.04,0.14-0.12,0.19-0.23c0.03-0.07,0.05-0.27,0.05-0.59
		v-4.18c0-0.33-0.02-0.53-0.05-0.61c-0.04-0.08-0.1-0.15-0.21-0.21c-0.1-0.06-0.24-0.09-0.42-0.09h-0.21v-0.16h3.3v0.16h-0.21
		c-0.18,0-0.33,0.03-0.44,0.1c-0.08,0.04-0.14,0.12-0.19,0.23c-0.03,0.07-0.05,0.27-0.05,0.59v4.18c0,0.33,0.02,0.53,0.05,0.61
		c0.04,0.08,0.11,0.15,0.21,0.21c0.1,0.06,0.24,0.09,0.42,0.09H156.28z M148.88,84.67v2.61h0.18c0.28,0,0.51-0.04,0.69-0.13
		c0.18-0.08,0.33-0.23,0.45-0.42c0.12-0.2,0.2-0.47,0.24-0.81h0.16v3.18h-0.16c-0.06-0.6-0.22-1-0.48-1.19
		c-0.26-0.19-0.56-0.29-0.89-0.29h-0.18v1.94c0,0.33,0.02,0.53,0.05,0.61c0.04,0.08,0.11,0.15,0.21,0.21
		c0.1,0.06,0.24,0.09,0.42,0.09h0.21v0.16h-3.3v-0.16h0.21c0.18,0,0.33-0.03,0.44-0.1c0.08-0.04,0.14-0.12,0.19-0.23
		c0.03-0.07,0.05-0.27,0.05-0.59v-4.18c0-0.33-0.02-0.53-0.05-0.61c-0.04-0.08-0.1-0.15-0.21-0.21c-0.1-0.06-0.24-0.09-0.42-0.09
		h-0.21v-0.16h5.34v1.82h-0.19c-0.04-0.43-0.15-0.74-0.33-0.95c-0.18-0.21-0.44-0.35-0.78-0.44c-0.19-0.05-0.53-0.07-1.04-0.07
		H148.88z M145.03,84.16v2.2h-0.18c-0.14-0.58-0.39-1.02-0.76-1.33c-0.37-0.31-0.8-0.46-1.27-0.46c-0.39,0-0.76,0.11-1.09,0.34
		c-0.33,0.23-0.57,0.53-0.72,0.89c-0.2,0.47-0.29,1-0.29,1.57c0,0.57,0.07,1.09,0.21,1.55c0.14,0.47,0.37,0.82,0.67,1.06
		c0.3,0.24,0.7,0.36,1.18,0.36c0.4,0,0.76-0.09,1.09-0.26c0.33-0.18,0.68-0.48,1.05-0.9v0.55c-0.35,0.37-0.72,0.64-1.11,0.81
		c-0.38,0.17-0.83,0.25-1.35,0.25c-0.68,0-1.28-0.14-1.8-0.41c-0.52-0.27-0.93-0.66-1.21-1.17c-0.29-0.51-0.43-1.05-0.43-1.62
		c0-0.6,0.16-1.18,0.47-1.72c0.32-0.54,0.74-0.96,1.28-1.26c0.54-0.3,1.1-0.45,1.71-0.45c0.44,0,0.91,0.1,1.41,0.29
		c0.29,0.11,0.47,0.17,0.55,0.17c0.1,0,0.19-0.04,0.26-0.11c0.07-0.07,0.12-0.19,0.14-0.35H145.03z M134.86,88.5l-0.95-2.16
		l-0.97,2.16H134.86z M135.01,88.84h-2.22l-0.28,0.62c-0.09,0.21-0.13,0.38-0.13,0.51c0,0.18,0.07,0.31,0.21,0.4
		c0.08,0.05,0.29,0.09,0.62,0.11v0.16h-2.11v-0.16c0.23-0.04,0.41-0.13,0.56-0.29c0.15-0.16,0.33-0.48,0.54-0.97l2.26-5.05h0.09
		l2.28,5.19c0.22,0.5,0.4,0.81,0.54,0.94c0.11,0.1,0.26,0.15,0.45,0.17v0.16h-3.06v-0.16h0.13c0.25,0,0.42-0.04,0.52-0.11
		c0.07-0.05,0.1-0.12,0.1-0.22c0-0.06-0.01-0.12-0.03-0.18c-0.01-0.03-0.05-0.15-0.14-0.36L135.01,88.84z M127.8,84.67v2.75
		c0.1,0.01,0.18,0.01,0.23,0.01c0.38,0,0.68-0.11,0.88-0.34c0.21-0.23,0.31-0.58,0.31-1.05c0-0.47-0.1-0.82-0.31-1.03
		c-0.21-0.22-0.51-0.33-0.92-0.33H127.8z M127.8,87.78v1.76c0,0.35,0.02,0.56,0.06,0.65c0.04,0.09,0.12,0.16,0.22,0.22
		c0.11,0.05,0.3,0.08,0.59,0.08v0.16h-3.22v-0.16c0.29,0,0.49-0.03,0.6-0.08c0.11-0.05,0.18-0.13,0.22-0.21
		c0.04-0.09,0.06-0.3,0.06-0.65v-4.12c0-0.35-0.02-0.56-0.06-0.65c-0.04-0.09-0.11-0.16-0.22-0.22c-0.11-0.05-0.3-0.08-0.59-0.08
		v-0.16h2.76c0.91,0,1.56,0.16,1.96,0.49c0.4,0.33,0.59,0.73,0.59,1.22c0,0.41-0.13,0.77-0.38,1.06c-0.26,0.29-0.61,0.49-1.06,0.6
		C129.03,87.74,128.52,87.78,127.8,87.78z M121.43,88.5l-0.95-2.16l-0.97,2.16H121.43z M121.58,88.84h-2.22l-0.28,0.62
		c-0.09,0.21-0.13,0.38-0.13,0.51c0,0.18,0.07,0.31,0.21,0.4c0.08,0.05,0.29,0.09,0.62,0.11v0.16h-2.11v-0.16
		c0.23-0.04,0.41-0.13,0.56-0.29c0.15-0.16,0.33-0.48,0.54-0.97l2.26-5.05h0.09l2.28,5.19c0.22,0.5,0.4,0.81,0.54,0.94
		c0.11,0.1,0.26,0.15,0.45,0.17v0.16h-3.06v-0.16h0.13c0.25,0,0.42-0.04,0.52-0.11c0.07-0.05,0.1-0.12,0.1-0.22
		c0-0.06-0.01-0.12-0.03-0.18c-0.01-0.03-0.05-0.15-0.14-0.36L121.58,88.84z"/>
</g>
<path class="st0" d="M242.57,193.57H39c-5.21,0-9.43-4.22-9.43-9.43v-68.71c0-5.21,4.22-9.43,9.43-9.43h203.57
	c5.21,0,9.43,4.22,9.43,9.43v68.71C252,189.35,247.78,193.57,242.57,193.57z"/>
<text transform="matrix(1 0 0 1 41.3255 129.0733)" class="st6 st7 st8">HOMELCEN00033388</text>
<g>
	<text transform="matrix(1 0 0 1 42.0765 148.7384)"><tspan x="0" y="0" class="st3 st7 st8">Applicant Name:</tspan><tspan x="0" y="10.35" class="st6 st7 st8">Ramesh Kumar</tspan></text>
</g>
<g>
	<path class="st3" d="M234.96,122.73c0.47-0.57,0.85-1.2,0.88-1.76c0,0,0.41,0.84,1.02,1.76h4.82c-1.1-0.88-2.24-1.85-2.46-2.26
		c-0.4-0.73-0.68-3.24-0.75-3.89c-0.01-0.11-0.04-0.21-0.07-0.31l-0.76-2.09c-0.01-0.02-0.01-0.05-0.02-0.07
		c-0.07-0.42-0.84-4.5-1.03-4.72c-0.21-0.23-0.4-0.21-0.6-0.11c0,0-0.57-0.57-0.77,0.46l-0.62,2.17l-0.76,2.41
		c0,0-0.58,1.2-0.66,1.56c-0.07,0.36-0.35,3.48-0.46,3.86c-0.08,0.26-0.51,1.05-1.1,1.67c0,0-0.6,0.63-1.34,1.31H234.96z"/>
	<path class="st0" d="M235.85,111.85c0,0,0.39,5.05,0,7.29C235.85,119.14,235.41,116.65,235.85,111.85"/>
	<path class="st3" d="M243.47,124.05l1.24,1.57v-1.09c0-0.15-0.02-0.26-0.07-0.31c-0.06-0.07-0.16-0.11-0.3-0.11v-0.06h0.83v0.06
		c-0.11,0.01-0.18,0.03-0.22,0.05c-0.04,0.02-0.06,0.06-0.09,0.11c-0.02,0.05-0.03,0.13-0.03,0.25v2.1h-0.06l-1.71-2.11v1.61
		c0,0.15,0.03,0.25,0.1,0.3c0.07,0.05,0.14,0.08,0.23,0.08h0.06v0.06h-0.9v-0.06c0.14,0,0.24-0.03,0.29-0.09
		c0.05-0.06,0.08-0.15,0.08-0.29v-1.79l-0.05-0.07c-0.05-0.07-0.1-0.11-0.14-0.14c-0.04-0.02-0.1-0.03-0.18-0.04v-0.06H243.47z
		 M242.16,126.51v0.06h-1.32v-0.06h0.08c0.07,0,0.13-0.01,0.18-0.04c0.03-0.02,0.06-0.05,0.07-0.09c0.01-0.03,0.02-0.11,0.02-0.24
		v-1.67c0-0.13-0.01-0.21-0.02-0.24c-0.01-0.03-0.04-0.06-0.08-0.09c-0.04-0.02-0.1-0.04-0.17-0.04h-0.08v-0.06h1.32v0.06h-0.08
		c-0.07,0-0.13,0.01-0.18,0.04c-0.03,0.02-0.06,0.05-0.08,0.09c-0.01,0.03-0.02,0.11-0.02,0.24v1.67c0,0.13,0.01,0.21,0.02,0.24
		c0.01,0.03,0.04,0.06,0.08,0.09c0.04,0.02,0.1,0.04,0.17,0.04H242.16z M239.21,124.19v1.04h0.07c0.11,0,0.2-0.02,0.27-0.05
		c0.07-0.03,0.13-0.09,0.18-0.17c0.05-0.08,0.08-0.19,0.1-0.32h0.06v1.27h-0.06c-0.02-0.24-0.09-0.4-0.19-0.47s-0.22-0.11-0.36-0.11
		h-0.07v0.77c0,0.13,0.01,0.21,0.02,0.24c0.01,0.03,0.04,0.06,0.08,0.09c0.04,0.02,0.1,0.04,0.17,0.04h0.08v0.06h-1.32v-0.06h0.08
		c0.07,0,0.13-0.01,0.18-0.04c0.03-0.02,0.06-0.05,0.07-0.09c0.01-0.03,0.02-0.11,0.02-0.24v-1.67c0-0.13-0.01-0.21-0.02-0.24
		c-0.01-0.03-0.04-0.06-0.08-0.09c-0.04-0.02-0.1-0.04-0.17-0.04h-0.08v-0.06h2.13v0.72h-0.08c-0.02-0.17-0.06-0.3-0.13-0.38
		c-0.07-0.08-0.17-0.14-0.31-0.17c-0.07-0.02-0.21-0.03-0.41-0.03H239.21z M237.67,123.99v0.88h-0.07c-0.05-0.23-0.16-0.41-0.3-0.53
		c-0.15-0.12-0.32-0.18-0.51-0.18c-0.16,0-0.3,0.05-0.43,0.14c-0.13,0.09-0.23,0.21-0.29,0.36c-0.08,0.19-0.12,0.4-0.12,0.63
		c0,0.23,0.03,0.43,0.09,0.62c0.06,0.19,0.15,0.33,0.27,0.42c0.12,0.1,0.28,0.14,0.47,0.14c0.16,0,0.3-0.03,0.44-0.1
		c0.13-0.07,0.27-0.19,0.42-0.36v0.22c-0.14,0.15-0.29,0.26-0.44,0.32c-0.15,0.07-0.33,0.1-0.54,0.1c-0.27,0-0.51-0.05-0.72-0.16
		c-0.21-0.11-0.37-0.26-0.48-0.47c-0.11-0.2-0.17-0.42-0.17-0.65c0-0.24,0.06-0.47,0.19-0.69c0.13-0.22,0.3-0.38,0.51-0.5
		c0.21-0.12,0.44-0.18,0.68-0.18c0.18,0,0.36,0.04,0.56,0.12c0.11,0.05,0.19,0.07,0.22,0.07c0.04,0,0.07-0.01,0.1-0.04
		c0.03-0.03,0.05-0.08,0.06-0.14H237.67z M233.62,125.72l-0.38-0.86l-0.39,0.86H233.62z M233.68,125.85h-0.88l-0.11,0.25
		c-0.03,0.08-0.05,0.15-0.05,0.21c0,0.07,0.03,0.12,0.09,0.16c0.03,0.02,0.12,0.03,0.25,0.05v0.06h-0.84v-0.06
		c0.09-0.01,0.17-0.05,0.22-0.11c0.06-0.06,0.13-0.19,0.22-0.39l0.9-2.01h0.04l0.91,2.07c0.09,0.2,0.16,0.32,0.21,0.37
		c0.04,0.04,0.1,0.06,0.18,0.07v0.06h-1.22v-0.06h0.05c0.1,0,0.17-0.01,0.21-0.04c0.03-0.02,0.04-0.05,0.04-0.09
		c0-0.02,0-0.05-0.01-0.07c0-0.01-0.02-0.06-0.06-0.14L233.68,125.85z M230.81,124.19v1.09c0.04,0,0.07,0,0.09,0
		c0.15,0,0.27-0.05,0.35-0.14s0.12-0.23,0.12-0.42c0-0.19-0.04-0.33-0.12-0.41c-0.08-0.09-0.21-0.13-0.37-0.13H230.81z
		 M230.81,125.43v0.7c0,0.14,0.01,0.22,0.03,0.26c0.02,0.04,0.05,0.06,0.09,0.09c0.04,0.02,0.12,0.03,0.24,0.03v0.06h-1.28v-0.06
		c0.12,0,0.2-0.01,0.24-0.03c0.04-0.02,0.07-0.05,0.09-0.09c0.02-0.03,0.03-0.12,0.03-0.26v-1.64c0-0.14-0.01-0.22-0.03-0.26
		c-0.02-0.04-0.05-0.06-0.09-0.09c-0.04-0.02-0.12-0.03-0.24-0.03v-0.06h1.1c0.36,0,0.62,0.06,0.78,0.19
		c0.16,0.13,0.24,0.29,0.24,0.48c0,0.16-0.05,0.3-0.15,0.42c-0.1,0.12-0.24,0.2-0.42,0.24C231.3,125.42,231.09,125.43,230.81,125.43
		z M228.27,125.72l-0.38-0.86l-0.39,0.86H228.27z M228.33,125.85h-0.88l-0.11,0.25c-0.03,0.08-0.05,0.15-0.05,0.21
		c0,0.07,0.03,0.12,0.09,0.16c0.03,0.02,0.12,0.03,0.25,0.05v0.06h-0.84v-0.06c0.09-0.01,0.17-0.05,0.22-0.11
		c0.06-0.06,0.13-0.19,0.22-0.39l0.9-2.01h0.04l0.91,2.07c0.09,0.2,0.16,0.32,0.21,0.37c0.04,0.04,0.1,0.06,0.18,0.07v0.06h-1.22
		v-0.06h0.05c0.1,0,0.17-0.01,0.21-0.04c0.03-0.02,0.04-0.05,0.04-0.09c0-0.02,0-0.05-0.01-0.07c0-0.01-0.02-0.06-0.06-0.14
		L228.33,125.85z"/>
</g>
<path class="st9" d="M167.82,188.63h-54.06c-3.18,0-5.75-2.58-5.75-5.75v-7.72c0-3.18,2.58-5.75,5.75-5.75h54.06
	c3.18,0,5.75,2.58,5.75,5.75v7.72C173.57,186.05,171,188.63,167.82,188.63z"/>
<text transform="matrix(1 0 0 1 112.8981 182.276)" class="st3 st7 st10">View Details</text>
<g>
	<g>
		<path class="st4" d="M241.49,35.13c0.55,0.14,0.91,0.59,0.92,1.15c0,0.25,0.01,0.51,0,0.76c-0.01,0.13,0.04,0.19,0.17,0.22
			c0.43,0.1,0.83,0.25,1.23,0.43c0.15,0.07,0.17,0.11,0.08,0.26c-1.01,1.58-0.95,3.49,0.18,4.97c0.81,1.06,1.91,1.62,3.25,1.7
			c0.15,0.01,0.19,0.04,0.2,0.19c0.05,1.52,0.11,3.03,0.26,4.54c0.02,0.24,0.06,0.47,0.09,0.71c0.03,0.23,0.13,0.42,0.29,0.59
			c0.69,0.74,1.44,1.41,2.19,2.09c0.19,0.17,0.3,0.39,0.34,0.64c-0.03,0.13,0.01,0.26,0,0.39c-0.04,0.25-0.19,0.4-0.39,0.51
			c-0.25,0.14-0.53,0.18-0.82,0.18c-5.64,0-11.27,0-16.91,0c-0.19,0-0.38-0.02-0.56-0.08c-0.32-0.09-0.58-0.26-0.66-0.6
			c-0.08-0.38,0.01-0.73,0.3-1c0.69-0.64,1.38-1.28,2.06-1.94c0.33-0.32,0.47-0.69,0.51-1.14c0.11-1.14,0.18-2.29,0.22-3.43
			c0.04-1.07,0.05-2.15,0.12-3.22c0.19-2.78,2.15-5.11,4.85-5.8c0.18-0.05,0.23-0.12,0.22-0.29c-0.02-0.23-0.01-0.46,0-0.7
			c0.01-0.56,0.37-1.01,0.92-1.15C240.85,35.12,241.17,35.12,241.49,35.13z"/>
		<path class="st4" d="M247.36,43.51c-1.75-0.06-3.2-1.57-3.07-3.45c0.13-1.78,1.69-3.11,3.46-2.97c1.72,0.13,3.08,1.68,2.96,3.36
			C250.59,42.26,249.08,43.63,247.36,43.51z"/>
		<path class="st4" d="M240.71,58.39c-0.96-0.06-1.78-0.45-2.46-1.11c-0.48-0.46-0.81-1.02-1.01-1.66c-0.09-0.3,0-0.54,0.24-0.62
			c0.26-0.09,0.48,0.05,0.58,0.36c0.42,1.32,1.62,2.2,2.98,2.19c1.34-0.01,2.53-0.9,2.94-2.22c0.09-0.29,0.3-0.42,0.56-0.34
			c0.22,0.06,0.33,0.29,0.27,0.54c-0.35,1.51-1.95,2.81-3.49,2.86c-0.03,0-0.06,0-0.09-0.01C241.06,58.36,240.88,58.37,240.71,58.39
			z"/>
		<path class="st4" d="M253.16,50.03c-0.1,0.25-0.28,0.37-0.5,0.33c-0.24-0.04-0.39-0.21-0.4-0.47c-0.01-0.14,0-0.29,0-0.43
			c0.03-0.14,0.02-0.28,0.01-0.39c0.01,0.03,0.02,0.09-0.03,0.15c-0.07-0.42-0.12-0.85-0.26-1.25c-0.26-0.75-0.64-1.39-1.39-1.76
			c-0.22-0.11-0.29-0.38-0.19-0.6c0.11-0.22,0.36-0.32,0.61-0.22c0.27,0.11,0.51,0.28,0.72,0.48c0.72,0.67,1.1,1.52,1.3,2.46
			c0.08,0.36,0.14,0.73,0.13,1.1C253.13,49.62,253.14,49.83,253.16,50.03z"/>
		<path class="st4" d="M228.81,50.33c-0.17-0.03-0.26-0.15-0.3-0.3c0.02-0.2,0.03-0.4,0-0.61c0.06-1.3,0.39-2.5,1.33-3.47
			c0.24-0.24,0.5-0.44,0.82-0.57c0.25-0.1,0.5-0.01,0.61,0.22c0.11,0.22,0.04,0.49-0.19,0.6c-0.8,0.4-1.19,1.11-1.44,1.93
			c-0.17,0.56-0.22,1.14-0.22,1.72c0,0.22-0.08,0.4-0.3,0.47C229.01,50.33,228.91,50.32,228.81,50.33z"/>
		<path class="st4" d="M230.73,50.33c-0.2-0.06-0.3-0.21-0.3-0.4c-0.01-0.9,0.15-1.76,0.69-2.51c0.21-0.29,0.47-0.53,0.79-0.7
			c0.29-0.15,0.56-0.07,0.69,0.18c0.12,0.24,0.02,0.49-0.26,0.65c-0.4,0.22-0.62,0.58-0.78,0.98c-0.16,0.43-0.21,0.87-0.22,1.32
			c0,0.23-0.08,0.41-0.32,0.48C230.93,50.32,230.83,50.32,230.73,50.33z"/>
		<path class="st4" d="M250.33,49.61c-0.06-0.34-0.08-0.69-0.2-1.02c-0.17-0.46-0.41-0.86-0.87-1.09c-0.22-0.11-0.29-0.38-0.18-0.6
			c0.1-0.21,0.34-0.31,0.57-0.23c0.4,0.15,0.7,0.44,0.94,0.78c0.52,0.74,0.67,1.59,0.67,2.47c0,0.19-0.1,0.34-0.3,0.4
			c-0.1-0.02-0.2,0.01-0.3,0c-0.18-0.05-0.28-0.16-0.3-0.35c0.04-0.21,0-0.41,0.01-0.62C250.36,49.45,250.38,49.53,250.33,49.61z"/>
		<path class="st4" d="M250.33,49.61c0-0.09,0.01-0.18,0.01-0.27c0,0.22,0.1,0.44,0,0.65C250.34,49.86,250.34,49.73,250.33,49.61z"
			/>
		<path class="st4" d="M228.51,49.42c0.06,0.2,0.06,0.4,0,0.61C228.47,49.83,228.5,49.62,228.51,49.42z"/>
		<path class="st4" d="M253.16,50.03c-0.06-0.2-0.06-0.4,0-0.61C253.18,49.62,253.21,49.83,253.16,50.03z"/>
		<path class="st4" d="M250.64,50.33c0.1-0.06,0.2-0.06,0.3,0C250.85,50.37,250.75,50.39,250.64,50.33z"/>
		<path class="st4" d="M230.73,50.33c0.1-0.08,0.2-0.05,0.3,0C230.93,50.38,230.83,50.37,230.73,50.33z"/>
		<path class="st4" d="M252.25,49.22c0.01-0.06,0.01-0.13,0.02-0.19c0.02,0.15,0.07,0.29-0.01,0.43
			C252.26,49.38,252.25,49.3,252.25,49.22z"/>
		<path class="st4" d="M228.81,50.33c0.1-0.06,0.2-0.06,0.3-0.01C229.01,50.37,228.91,50.38,228.81,50.33z"/>
		<path class="st3" d="M241.57,37.87c0.23,0.14,0.49,0.13,0.74,0.2c0.43,0.12,0.43,0.11,0.29,0.53c-1.03,2.97,0.79,6.14,3.87,6.77
			c0.16,0.03,0.2,0.09,0.21,0.25c0.06,1.44,0.12,2.89,0.29,4.32c0.07,0.56,0.27,1.04,0.68,1.44c0.66,0.65,1.33,1.3,2.02,1.92
			c0.07,0.06,0.19,0.12,0.15,0.22c-0.04,0.1-0.17,0.08-0.27,0.08c-0.14,0.01-0.28,0-0.41,0c-5.48,0-10.97,0-16.45,0
			c-0.1,0-0.2,0-0.3-0.01c-0.07,0-0.16,0.01-0.19-0.07c-0.02-0.08,0.05-0.13,0.11-0.18c0.46-0.42,0.92-0.84,1.37-1.27
			c0.29-0.28,0.56-0.57,0.84-0.85c0.29-0.28,0.42-0.63,0.48-1.02c0.15-1.03,0.2-2.07,0.25-3.1c0.06-1.28,0.09-2.57,0.14-3.85
			c0.09-2.46,1.97-4.67,4.43-5.2c0.21-0.05,0.49-0.04,0.61-0.17c0.13-0.14,0.03-0.42,0.04-0.63c0.01-0.3,0-0.6,0-0.89
			c0-0.27,0.14-0.39,0.41-0.4c0.07,0,0.13,0.01,0.2,0c0.25-0.03,0.42,0.08,0.49,0.32c0.06,0.12,0.03,0.25,0.03,0.38
			C241.59,37.06,241.63,37.47,241.57,37.87z"/>
		<path class="st3" d="M247.33,39.35c-0.2,0.09-0.36,0.17-0.52,0.25c-0.09,0.05-0.14,0.07-0.17-0.07c-0.1-0.46-0.1-0.45,0.33-0.67
			c0.33-0.17,0.66-0.25,1.02-0.22c0.1,0.01,0.14,0.03,0.13,0.14c0,1.05,0,2.1,0,3.15c0,0.1-0.02,0.14-0.13,0.14
			c-0.66,0.04-0.66,0.04-0.66-0.61C247.33,40.76,247.33,40.07,247.33,39.35z"/>
	</g>
</g>
<g>
	<circle class="st11" cx="140.79" cy="493.11" r="20.36"/>
	<g>
		<path class="st3" d="M138.88,507.16c1.01-1.25,1.85-2.61,1.92-3.81c0,0,0.88,1.83,2.21,3.81h10.47c-2.4-1.92-4.86-4.02-5.34-4.91
			c-0.86-1.59-1.48-7.04-1.63-8.46c-0.02-0.23-0.08-0.46-0.15-0.67l-1.65-4.53c-0.02-0.05-0.03-0.1-0.04-0.15
			c-0.15-0.91-1.82-9.77-2.24-10.25c-0.45-0.51-0.87-0.46-1.31-0.23c0,0-1.23-1.24-1.67,1.01l-1.36,4.72l-1.66,5.23
			c0,0-1.27,2.61-1.43,3.39c-0.16,0.78-0.75,7.56-0.99,8.39c-0.16,0.57-1.11,2.28-2.38,3.62c0,0-1.31,1.37-2.9,2.85H138.88z"/>
		<path class="st12" d="M140.82,483.53c0,0,0.84,10.96,0,15.83C140.82,499.37,139.86,493.95,140.82,483.53"/>
	</g>
</g>
<g>
	<path class="st13" d="M252.07,209.03v18.94c0,3.37-3.75,6.1-8.38,6.1H37.88c-4.63,0-8.38-2.73-8.38-6.1v-18.94
		c0-3.37,3.75-6.1,8.38-6.1H243.7C248.32,202.93,252.07,205.66,252.07,209.03z"/>
	<path class="st0" d="M225,202.93l-50,0c0,6.33-2.5,12.18-6.56,15.35l-0.29,0.22l0.29,0.22c4.06,3.17,6.56,9.02,6.56,15.35h50h22.56
		c2.49,0,4.51-2.73,4.51-6.1v-18.94c0-3.37-2.02-6.1-4.51-6.1H225z"/>
</g>
<text transform="matrix(1 0 0 1 191.4464 216.5518)"><tspan x="0" y="0" class="st3 st7 st14">Payment</tspan><tspan x="4.21" y="11.12" class="st3 st7 st14">History</tspan></text>
<circle class="st15" cx="41.1" cy="218.14" r="9.82"/>
<circle class="st16" cx="64.24" cy="218.14" r="9.82"/>
<circle class="st15" cx="87.37" cy="218.14" r="9.82"/>
<circle class="st16" cx="110.2" cy="218.14" r="9.82"/>
<circle class="st16" cx="132.72" cy="218.14" r="9.82"/>
<circle class="st15" cx="156.47" cy="218.14" r="9.82"/>
<g>
	<text transform="matrix(1 0 0 1 34.1782 220.61)" class="st7 st17">JAN</text>
</g>
<g>
	<text transform="matrix(1 0 0 1 57.301 220.6553)" class="st7 st17">FEB</text>
</g>
<g>
	<text transform="matrix(1 0 0 1 79.0419 220.6549)" class="st7 st17">MAR</text>
</g>
<g>
	<text transform="matrix(1 0 0 1 102.9973 220.6549)" class="st7 st17">APR</text>
</g>
<g>
	<text transform="matrix(1 0 0 1 124.2265 220.6549)" class="st7 st17">MAY</text>
</g>
<g>
	<text transform="matrix(1 0 0 1 149.3518 220.61)" class="st7 st17">JUN</text>
</g>
<g>
	<defs>
		<path id="SVGID_00000052106403679753099870000004950098085362654117_" d="M242.57,302.28H39c-5.21,0-9.43-4.22-9.43-9.43v-39.71
			c0-5.21,4.22-9.43,9.43-9.43h203.57c5.21,0,9.43,4.22,9.43,9.43v39.71C252,298.06,247.78,302.28,242.57,302.28z"/>
	</defs>
	<clipPath id="SVGID_00000096781028222460289070000008981961931615209130_">
		<use xlink:href="#SVGID_00000052106403679753099870000004950098085362654117_"  style="overflow:visible;"/>
	</clipPath>
</g>
<g>
	<path class="st18" d="M68.59,251.1c0.38,0.1,0.54,0.37,0.57,0.74c0.01,0.12,0.01,0.25,0.01,0.37c0,6.14,0,12.29,0.01,18.43
		c0,0.34-0.08,0.52-0.42,0.63c-0.69,0.22-1.32,0.56-2.02,0.95c0-0.75,0-1.45,0-2.15c0-1.34-0.77-2.15-2.1-2.15
		c-6.45-0.01-12.9,0-19.36-0.01c-0.84,0-1.49,0.33-1.91,1.07c-0.25-0.09-0.22-0.32-0.22-0.51c-0.02-1.36-0.01-2.72,0-4.08
		c0-0.2-0.01-0.41,0.21-0.53c0.22,0.01,0.35,0.19,0.49,0.32c0.4,0.38,0.87,0.57,1.42,0.57c6.44,0,12.87,0.01,19.31-0.01
		c1.25,0,1.99-0.75,2-1.99c0.01-2.15,0.02-4.29,0-6.44c-0.01-1.25-0.75-1.99-2-1.99c-6.44-0.01-12.87,0-19.31-0.01
		c-0.56,0-1.02,0.19-1.42,0.57c-0.14,0.13-0.27,0.31-0.49,0.32c-0.23-0.13-0.21-0.37-0.21-0.58c-0.01-0.93-0.02-1.85,0-2.78
		c0.01-0.66,0.17-0.79,0.84-0.79c8.05,0,16.11,0,24.16,0C68.28,251.06,68.44,251.02,68.59,251.1z"/>
	<path class="st18" d="M43.38,263.89c-0.09,0.08-0.09,0.19-0.09,0.3c0,1.51,0,3.02,0,4.53c0,0.09,0.04,0.17,0.06,0.26
		c-0.15,0.33-0.19,0.67-0.19,1.03c0,2.17,0,4.35,0,6.52c0,0.37,0.04,0.73,0.2,1.08c0.14,1.7,0.13,3.39,0,5.09
		c-0.17,0.37-0.2,0.76-0.2,1.17c0,2.1,0,4.19,0,6.29c0,0.43,0.04,0.86,0.22,1.26c0.14,0.9,0.04,1.82,0.07,2.72c0,0.11,0,0.22,0,0.32
		c0.01,0.8,0.07,0.86,0.88,0.86c6.68,0,13.36,0,20.04,0.01c0.97,0,1.94-0.1,2.91,0.1c0.04,0.04,0.18,0.07,0.05,0.12
		c-0.1,0.05-0.24,0.01-0.37,0.01c-8.34,0-16.67,0-25.01-0.01c-1.01,0-1.26-0.25-1.26-1.26c0-14.02,0-28.03,0-42.05
		c0-0.97,0.25-1.22,1.24-1.22c8.68,0,17.35,0,26.03,0c0.21,0,0.43-0.07,0.62,0.08c-8.16,0-16.32,0-24.49,0
		c-0.76,0-0.81,0.05-0.81,0.81c0,0.93,0,1.85,0,2.78c0,0.16-0.06,0.34,0.08,0.49c0.13,0.32-0.02,0.64-0.02,0.96
		c0.01,2.27,0.01,4.53,0,6.8C43.35,263.25,43.5,263.57,43.38,263.89z"/>
	<path class="st0" d="M47.02,269.35c0.15-0.01,0.31-0.02,0.46-0.02c5.65,0,11.29,0,16.94,0c0.79,0,0.91,0.12,0.91,0.9
		c0,0.86-0.01,1.73,0.01,2.59c0,0.24-0.06,0.4-0.25,0.55c-1.26,1.02-2.3,2.22-3.09,3.64c-0.14,0.25-0.33,0.22-0.54,0.22
		c-3.75,0-7.5,0-11.25,0c-1.1,0-2.19-0.01-3.29-0.02c-0.29-0.47-0.2-0.95-0.08-1.44c0.19-0.21,0.45-0.17,0.69-0.17
		c1.09-0.01,2.18,0,3.27,0c0.15,0,0.31,0,0.46-0.01c0.32-0.03,0.64-0.09,0.71-0.46c0.07-0.35-0.17-0.53-0.45-0.66
		c-0.19-0.09-0.39-0.08-0.59-0.08c-1.17,0-2.34,0.01-3.51,0c-0.54,0-0.67-0.11-0.67-0.64c0-0.52-0.12-1.05,0.12-1.54
		c0.27-0.2,0.59-0.14,0.89-0.14c4.83,0,9.66,0,14.49,0c0.25,0,0.49,0.01,0.74-0.03c0.27-0.04,0.46-0.2,0.48-0.48
		c0.02-0.3-0.18-0.45-0.44-0.51c-0.26-0.07-0.52-0.04-0.78-0.04c-4.83,0-9.66,0-14.49,0c-0.29,0-0.59,0.05-0.86-0.12
		C46.63,270.33,46.68,269.67,47.02,269.35z"/>
	<path class="st3" d="M72.2,271.88c5.94-0.67,11.27,3.2,12.73,8.71c1.3,4.86-0.55,9.91-4.76,12.88c-0.34,0.24-0.56,0.5-0.44,0.92
		c0.05,0.18-0.05,0.21-0.15,0.27c-0.2,0.11-0.41,0.21-0.61,0.33c-0.23,0.13-0.41,0.19-0.63-0.07c-0.21-0.25-0.52-0.18-0.82-0.07
		c-1.69,0.6-3.44,0.82-5.23,0.64c-0.91-0.21-1.72-0.65-2.49-1.16c-1.18-0.78-2.23-1.69-3.07-2.84c-0.11-0.15-0.35-0.3-0.15-0.55
		c0.3,0.03,0.48,0.26,0.69,0.43c1.37,1.13,2.93,1.84,4.68,2.07c3.02,0.41,5.72-0.35,8.04-2.36c2.33-2.02,3.43-4.61,3.36-7.66
		c-0.05-2.3-0.8-4.38-2.35-6.14c-1.81-2.06-4.08-3.19-6.8-3.44c-2.57-0.24-4.84,0.5-6.86,2.08c-0.2,0.16-0.38,0.36-0.65,0.44
		c-0.39-0.17-0.08-0.36,0.01-0.48c0.47-0.63,1.02-1.2,1.61-1.72c0.76-0.66,1.59-1.22,2.47-1.72
		C71.23,272.18,71.71,272.01,72.2,271.88z"/>
	<path class="st0" d="M47,283.08c2.98-0.01,5.95-0.01,8.93-0.01c1.31,0,2.62,0,3.93,0c0.18,0,0.35-0.04,0.34,0.27
		c-0.06,2.71,0.66,5.21,2.09,7.52c-0.07,0.26-0.28,0.13-0.42,0.13c-2.49,0.01-4.97,0.01-7.46,0.01c-2.36,0-4.73,0-7.09,0
		c-0.5,0-0.55-0.06-0.58-0.55c0-0.08,0-0.15,0-0.23c0.01-0.68,0.1-0.79,0.77-0.79c1.44,0,2.87,0,4.31,0c0.22,0,0.43,0.01,0.64-0.08
		c0.08-0.04,0.17-0.06,0.25-0.11c0.2-0.12,0.32-0.29,0.27-0.53c-0.05-0.28-0.24-0.42-0.51-0.45c-0.46-0.05-0.92-0.02-1.38-0.02
		c-1.19,0-2.37,0-3.56,0c-0.24,0-0.5,0.04-0.69-0.18c-0.18-0.57-0.1-1.16-0.07-1.74c0.01-0.25,0.18-0.38,0.44-0.39
		c0.19-0.01,0.37-0.01,0.56-0.01c3.35,0,6.7,0,10.05,0c0.23,0,0.46,0.02,0.68-0.1c0.25-0.12,0.47-0.28,0.4-0.6
		c-0.07-0.34-0.34-0.46-0.65-0.49c-0.2-0.02-0.4-0.01-0.6-0.01c-3.31,0-6.63,0-9.94,0c-0.27,0-0.56,0.04-0.81-0.12
		C46.7,284.07,46.6,283.56,47,283.08z"/>
	<path class="st18" d="M67.28,295.42c-0.14,0.09-0.3,0.05-0.45,0.05c-7.62,0-15.24,0-22.86,0.01c-0.46,0-0.67-0.16-0.67-0.59
		c-0.01-1.09-0.01-2.19,0-3.29c0-0.07,0.06-0.14,0.09-0.2c0.49,0.73,1.18,1.01,2.05,1.01c5.87-0.01,11.73,0,17.6-0.01
		c0.32,0,0.54,0.1,0.75,0.33C64.78,293.84,65.97,294.71,67.28,295.42z"/>
	<path class="st18" d="M43.37,282.7c-0.09-0.08-0.08-0.2-0.08-0.3c0-1.49,0-2.99,0-4.48c0-0.11-0.01-0.22,0.07-0.3
		c0.45,0.74,1.1,1.04,1.97,1.04c5.09-0.02,10.18-0.01,15.28-0.01c0.17,0,0.34,0,0.56,0c-0.36,0.95-0.63,1.89-0.8,2.85
		c-0.05,0.27-0.25,0.18-0.39,0.18c-2.25,0.01-4.51,0-6.76,0c-2.62,0-5.25,0.02-7.87-0.01C44.48,281.66,43.82,281.96,43.37,282.7z"/>
	<path class="st3" d="M72.2,271.88c-0.87,0.42-1.74,0.84-2.54,1.39c-1.09,0.74-2.02,1.65-2.85,2.67c-0.08,0.1-0.26,0.19-0.16,0.38
		c0.03,0.26-0.17,0.38-0.32,0.53c-1.53,1.59-2.46,3.49-2.68,5.67c-0.3,2.98,0.5,5.65,2.58,7.88c0.14,0.15,0.35,0.27,0.32,0.53
		c0.19,0.5,0.57,0.87,0.91,1.25c1.34,1.48,3,2.52,4.83,3.29c-2.91-0.29-5.38-1.5-7.4-3.59c-1.84-1.9-2.96-4.17-3.22-6.8
		c-0.33-3.39,0.56-6.44,2.74-9.08c1.99-2.41,4.58-3.73,7.66-4.13C72.1,271.86,72.15,271.87,72.2,271.88z"/>
	<path class="st19" d="M47,283.08c-0.16,0.48-0.09,0.98-0.08,1.47c-0.06,0.18-0.23,0.25-0.34,0.37c-0.13,0.14-0.24,0.29-0.16,0.49
		c0.07,0.21,0.22,0.32,0.44,0.35c0.21,0.03,0.43,0.02,0.65,0.02c3.43,0,6.87,0,10.3,0c0.27,0,0.56-0.07,0.78,0.17
		c-0.16,0.14-0.35,0.08-0.53,0.08c-3.53,0-7.06,0.01-10.58-0.01c-0.49,0-0.61,0.14-0.58,0.6c0.04,0.47,0.01,0.95,0.01,1.43
		c-0.06,0.15-0.21,0.21-0.32,0.32c-0.15,0.15-0.23,0.32-0.17,0.54c0.06,0.22,0.22,0.32,0.43,0.36c0.18,0.04,0.37,0.03,0.55,0.03
		c1.49,0,2.98,0,4.47,0c0.24,0,0.5-0.06,0.69,0.16c-0.15,0.12-0.33,0.07-0.49,0.07c-1.57,0-3.14,0.01-4.72,0
		c-0.34,0-0.46,0.08-0.45,0.44c0.01,0.95,4.07,1.03-1.4,1.03c-0.82,0-0.92-0.1-0.92-0.93c0-2.08,0-4.17,0-6.25
		c0-0.62,0.14-0.76,0.76-0.76C45.89,283.07,46.44,283.08,47,283.08z"/>
	<path class="st19" d="M47.02,269.35c-0.24,0.48-0.07,0.98-0.12,1.47c-0.01,0.03-0.03,0.06-0.05,0.07c-0.72,0.5-0.72,0.77,0,1.27
		c0.02,0.02,0.04,0.04,0.05,0.07c0,0.54,0.01,1.08-0.01,1.61c-0.01,0.33,0.11,0.42,0.42,0.42c1.29-0.01,2.58-0.01,3.87,0
		c0.15,0,0.31-0.04,0.44,0.08c-0.18,0.21-0.42,0.16-0.65,0.16c-1.18,0.01-2.37,0-3.55,0c-0.15,0-0.31,0-0.46,0.01
		c-0.26,0.02-0.49,0.11-0.57,0.39c-0.08,0.26,0.07,0.44,0.26,0.59c0.1,0.08,0.2,0.14,0.25,0.26c0,0.49,0.01,0.97,0.01,1.46
		c-0.6,0.01-1.2,0.02-1.8,0.02c-0.36,0-0.54-0.2-0.54-0.55c0-2.27,0-4.54,0-6.81c0-0.37,0.19-0.54,0.54-0.54
		C45.75,269.33,46.38,269.34,47.02,269.35z"/>
	<path class="st13" d="M43.38,263.89c-0.17-0.37-0.21-0.76-0.21-1.16c0-2.13,0-4.25,0-6.38c0-0.4,0.04-0.79,0.21-1.16
		c0.48-0.74,1.15-1.03,2.03-1.03c6.37,0.02,12.75,0.01,19.12,0.01c1.42,0,2.2,0.78,2.2,2.2c0,2.13,0,4.26,0,6.39
		c0,1.35-0.8,2.16-2.15,2.16c-6.39,0-12.78-0.01-19.17,0.01C44.53,264.92,43.85,264.63,43.38,263.89z"/>
	<path class="st3" d="M46.9,272.24c-0.44-0.05-0.72-0.29-0.71-0.73c0.01-0.42,0.29-0.64,0.71-0.69c2.48,0,4.97,0.01,7.45,0.01
		c2.85,0,5.71,0,8.56,0c0.39,0,0.67,0.16,0.76,0.54c0.09,0.38-0.08,0.67-0.44,0.81c-0.15,0.06-0.33,0.04-0.5,0.04
		c-5.1,0-10.21,0-15.31,0C47.24,272.23,47.07,272.24,46.9,272.24z"/>
	<path class="st3" d="M46.9,275.76c-0.24-0.07-0.47-0.14-0.61-0.37c-0.3-0.49,0.02-1.03,0.64-1.03c1.57-0.01,3.13-0.01,4.7-0.01
		c0.38,0.13,0.61,0.39,0.54,0.8c-0.08,0.45-0.42,0.6-0.86,0.6C49.84,275.74,48.37,275.75,46.9,275.76z"/>
	<path class="st3" d="M58.58,285.96c-3.84,0-7.67,0-11.51,0c-0.53,0-0.86-0.22-0.88-0.61c-0.02-0.46,0.26-0.69,0.68-0.79
		c0.01,0,0.03-0.01,0.04-0.02c2.59,0.01,5.17,0.01,7.76,0.02c1.2,0,2.4,0,3.6,0c0.41,0,0.74,0.17,0.82,0.59
		C59.18,285.56,58.96,285.82,58.58,285.96z"/>
	<path class="st3" d="M52.55,289.48c-1.81-0.01-3.62-0.01-5.44-0.02c-0.58,0-0.87-0.18-0.93-0.6c-0.05-0.37,0.19-0.65,0.72-0.8
		c1.82,0,3.63,0.01,5.45,0.02c0.67,0,1.04,0.56,0.73,1.07C52.96,289.34,52.78,289.44,52.55,289.48z"/>
	<path class="st3" d="M57.41,289.47c-0.69,0-1.39,0-2.08,0c-0.43,0-0.73-0.27-0.74-0.64c-0.02-0.41,0.26-0.74,0.7-0.74
		c1.42-0.01,2.83-0.01,4.25,0c0.45,0,0.73,0.31,0.71,0.73c-0.01,0.41-0.27,0.65-0.72,0.66C58.83,289.47,58.12,289.47,57.41,289.47z"
		/>
	<path class="st0" d="M64.98,255.64c0.31,0.1,0.35,0.35,0.35,0.62c0,2.18,0,4.37,0,6.55c0,0.27-0.04,0.53-0.36,0.62
		c-0.16,0.08-0.33,0.04-0.5,0.04c-5.66,0-11.32,0-16.98,0c-0.25,0-0.57,0.11-0.68-0.23c-0.12-0.39-0.16-0.8,0.06-1.17
		c0.12-0.21,0.38-0.16,0.6-0.16c1.73-0.01,3.45,0,5.18,0c0.22,0,0.43,0.01,0.63-0.08c0.27-0.12,0.5-0.29,0.43-0.62
		c-0.07-0.34-0.34-0.46-0.66-0.48c-0.82-0.03-1.63-0.01-2.45-0.01c-1.03,0-2.07,0-3.1,0c-0.23,0-0.47,0.03-0.65-0.16
		c-0.16-0.68-0.19-1.36,0.02-2.03c0.25-0.2,0.56-0.15,0.84-0.15c4.81,0,9.61,0,14.42,0c0.25,0,0.49,0.01,0.74-0.02
		c0.27-0.04,0.52-0.13,0.59-0.43c0.07-0.31-0.08-0.5-0.35-0.63c-0.23-0.13-0.48-0.11-0.72-0.11c-4.91,0-9.82,0-14.72,0
		c-0.85,0-1.16-0.47-0.88-1.28c0.06-0.18,0.18-0.28,0.37-0.29c0.08,0,0.15,0,0.23,0c5.74,0,11.48,0,17.22,0
		C64.74,255.6,64.86,255.58,64.98,255.64z"/>
	<path class="st19" d="M46.91,258.52c0,0.68,0,1.36,0,2.04c-0.07,0.16-0.24,0.24-0.35,0.36c-0.13,0.14-0.24,0.29-0.16,0.5
		c0.07,0.21,0.22,0.33,0.44,0.36c0.18,0.03,0.37,0.02,0.55,0.02c1.77,0,3.54,0,5.31,0c0.24,0,0.5-0.06,0.69,0.16
		c-0.16,0.14-0.35,0.08-0.53,0.08c-1.82,0-3.64,0.01-5.46,0c-0.36,0-0.52,0.06-0.51,0.47c0.03,1.05-0.06,0.92,0.92,0.92
		c5.72,0,11.44,0,17.16,0c-0.14,0.15-0.32,0.09-0.48,0.09c-6.38,0-12.75,0-19.13,0c-0.63,0-0.79-0.16-0.79-0.79
		c0-2.13,0-4.26,0-6.39c0-0.63,0.15-0.78,0.79-0.78c6.38,0,12.75,0,19.13,0c0.16,0,0.34-0.07,0.48,0.09c-5.81,0-11.63,0-17.44,0
		c-0.63,0-0.63,0-0.63,0.65c0,0.17,0,0.34,0,0.51c0,0.15,0.07,0.23,0.22,0.23c0.12,0,0.25,0,0.37,0c5.04,0,10.09,0,15.13,0
		c0.19,0,0.4-0.06,0.58,0.08c-0.24,0.25-0.55,0.17-0.83,0.17c-4.94,0.01-9.88,0-14.81,0c-0.22,0-0.43,0-0.65,0.01
		c-0.24,0.02-0.41,0.12-0.5,0.35c-0.08,0.22,0.04,0.38,0.19,0.53C46.71,258.29,46.85,258.37,46.91,258.52z"/>
	<path class="st3" d="M46.91,258.52c-0.41-0.09-0.74-0.3-0.72-0.76c0.01-0.32,0.2-0.58,0.56-0.63c0.14-0.02,0.28-0.02,0.42-0.02
		c5.18,0,10.36,0,15.54,0c0.17,0,0.34,0,0.51,0.01c0.41,0.17,0.56,0.49,0.45,0.89c-0.12,0.43-0.49,0.5-0.89,0.5
		c-3.84,0-7.67,0-11.51,0C49.81,258.5,48.36,258.51,46.91,258.52z"/>
	<path class="st3" d="M53.39,261.96c-2.09,0-4.18,0-6.28,0c-0.57,0-0.9-0.2-0.92-0.6c-0.03-0.49,0.3-0.7,0.72-0.8
		c1.94,0.01,3.87,0.01,5.81,0.02c0.12,0,0.25,0,0.37,0c0.42,0,0.73,0.17,0.82,0.59C53.99,261.56,53.77,261.83,53.39,261.96z"/>
	<path class="st3" d="M57.32,261.96c-0.43,0-0.86,0.01-1.29,0c-0.4-0.01-0.63-0.23-0.68-0.61c-0.05-0.37,0.19-0.73,0.59-0.75
		c0.94-0.04,1.88-0.04,2.82,0c0.39,0.02,0.62,0.32,0.58,0.75c-0.04,0.4-0.27,0.6-0.67,0.61C58.21,261.97,57.76,261.96,57.32,261.96z
		"/>
</g>
<g>
	
		<ellipse transform="matrix(0.1602 -0.9871 0.9871 0.1602 -86.1053 442.4796)" class="st20" cx="216.98" cy="271.84" rx="18.85" ry="18.85"/>
	<path class="st21" d="M216.98,288.19c-9.01,0-16.35-7.33-16.35-16.35s7.33-16.35,16.35-16.35c9.01,0,16.35,7.33,16.35,16.35
		S226,288.19,216.98,288.19z"/>
</g>
<g>
	<g>
		<path class="st3" d="M223.3,279.31l2.32,12.51c0.12,0.66,0.89,0.98,1.44,0.59l3.14-2.2l4.52,6.46c0.29,0.42,0.87,0.52,1.29,0.23
			l0.42-0.3l0.45-0.32c0.42-0.29,0.52-0.87,0.23-1.29l-4.52-6.46l3.11-2.18c0.55-0.39,0.52-1.22-0.06-1.56l-10.96-6.46
			C224,277.94,223.15,278.53,223.3,279.31z"/>
	</g>
	<line class="st22" x1="219.88" y1="276.29" x2="222.24" y2="277.62"/>
	<line class="st22" x1="219.12" y1="280.59" x2="221.82" y2="280.32"/>
	<line class="st22" x1="224.84" y1="273.74" x2="224.7" y2="276.45"/>
	<line class="st22" x1="228.95" y1="275.21" x2="227.03" y2="277.13"/>
</g>
<g>
	<path class="st9" d="M77.32,289.78H77.2v-2.1c0-0.93-0.44-1.8-1.19-2.35l-1.82-1.34l1.82-1.34c0.75-0.55,1.19-1.42,1.19-2.35v-2.1
		h0.12h0.17c0-0.01,0-0.01,0-0.02c0.39-0.08,0.68-0.42,0.68-0.84c0-0.47-0.38-0.85-0.85-0.85h-7.41c-0.47,0-0.85,0.38-0.85,0.85
		c0,0.47,0.38,0.85,0.85,0.85h0.01h0.11v2.1c0,0.93,0.44,1.8,1.19,2.35l1.82,1.34l-1.82,1.34c-0.75,0.55-1.19,1.42-1.19,2.35v2.1
		h-0.12c0,0,0,0,0,0h-0.13c0,0,0,0.01,0,0.01c-0.41,0.06-0.72,0.42-0.72,0.84c0,0.47,0.38,0.85,0.85,0.85h7.41
		c0.47,0,0.85-0.38,0.85-0.85C78.17,290.16,77.79,289.78,77.32,289.78z M71.55,282.21c-0.61-0.45-0.97-1.16-0.97-1.92v-2.1h6.08v2.1
		c0,0.75-0.36,1.47-0.97,1.92l-1.96,1.44l-0.11,0.08l-0.11-0.08L71.55,282.21z M70.58,287.67c0-0.75,0.36-1.47,0.97-1.92l1.96-1.44
		l0.11-0.08l0.11,0.08l1.96,1.44c0.61,0.45,0.97,1.16,0.97,1.92v2.1h-6.08V287.67z"/>
	<path class="st13" d="M75.42,286.12l-1.8-1.33l-1.8,1.33c-0.49,0.36-0.79,0.94-0.79,1.55v1.65h5.18v-1.65
		C76.21,287.06,75.91,286.48,75.42,286.12z"/>
	<polygon class="st13" points="75.32,281.92 71.92,281.92 73.62,283.17 	"/>
</g>
<text transform="matrix(1 0 0 1 205.4281 265.54)"><tspan x="0" y="0" class="st3 st7 st23">CLICK</tspan><tspan x="0.89" y="6.95" class="st3 st7 st23">HERE</tspan></text>
<text transform="matrix(1 0 0 1 93.1613 264.8384)" class="st3 st7 st24">Complete Your</text>
<text transform="matrix(1 0 0 1 202.7302 379.6641)" class="st0 st7 st25">Pay EMI</text>
<path class="st13" d="M233.58,371h-36.29c-4.73,0-8.57-3.84-8.57-8.57v-29.98c0-4.73,3.84-8.57,8.57-8.57h36.29
	c4.73,0,8.57,3.84,8.57,8.57v29.98C242.15,367.17,238.31,371,233.58,371z"/>
<g>
	<path class="st9" d="M216.68,334.21c0.67,0.22,1.38,0.28,2.05,0.54c3.69,1.42,5.86,4.95,5.45,8.88c-0.18,0.23-0.46,0.17-0.69,0.18
		c-2.75,0.12-4.6,3.02-3.75,5.58c0.08,0.23,0.22,0.47,0.09,0.73c-5.04,2.74-11.34-0.23-12.38-5.84c-0.86-4.62,2.12-8.99,6.76-9.93
		c0.24-0.05,0.51,0.06,0.71-0.14C215.51,334.21,216.09,334.21,216.68,334.21z"/>
	<path class="st9" d="M210.6,354.08c0.48-1.75,1.42-1.95,3.07-2.09c1.2-0.1,2.31,0.18,3.36,0.75c0.89,0.49,1.83,0.74,2.85,0.66
		c0.45-0.04,0.9-0.02,1.34,0c0.64,0.02,0.9,0.37,0.76,0.99c-0.23,1-0.92,1.57-1.95,1.57c-1.42,0.01-2.84,0-4.27,0
		c-0.62,0-1.01,0.27-0.95,0.69c0.07,0.51,0.46,0.69,0.93,0.69c1.46,0.01,2.92,0.01,4.38,0c0.56-0.01,1.05-0.21,1.46-0.62
		c0.88-0.89,1.76-1.77,2.64-2.65c1.23-1.22,2.97-1.32,4.32-0.25c0.49,0.38,0.55,0.74,0.12,1.17c-1.59,1.61-3.19,3.2-4.79,4.8
		c-0.41,0.41-0.95,0.57-1.49,0.73c-3.94,0-7.88,0-11.81,0c-0.2-0.22-0.19-0.5-0.19-0.77c0-1.63,0-3.27,0-4.9
		C210.41,354.59,210.41,354.31,210.6,354.08z"/>
	<path class="st0" d="M210.6,354.08c0,2.15,0,4.3,0,6.45c-0.74,0-9.22,1.53-8.67-5.63c0.05-0.64,0.18-0.82,0.83-0.82
		C203.38,354.08,209.98,354.08,210.6,354.08z"/>
	<path class="st0" d="M219.83,350.13c-0.6-1.39-0.67-2.78,0.07-4.14c0.92-1.68,2.39-2.41,4.28-2.36c2.34,0.4,3.65,1.7,4.01,3.96
		c0.35,2.22-1.34,4.54-3.58,4.88C222.48,352.79,220.92,351.94,219.83,350.13z"/>
	<path class="st26" d="M211.56,338.42c0.35-0.89,0.81-1.33,1.8-1.29c2.22,0.09,4.44,0.03,6.66,0.03c-0.14,0.62-0.59,1.18-0.99,1.19
		c-0.55,0.01-1.09,0-1.68,0c0.16,0.37,0.3,0.72,0.45,1.07c0.09,0.23,0.29,0.16,0.45,0.16c0.58,0.01,1.16,0,1.84,0
		c-0.25,0.38-0.46,0.69-0.67,1.01c-0.21,0.32-0.54,0.17-0.8,0.16c-0.48-0.01-0.74,0.05-0.93,0.62c-0.51,1.53-1.82,2.07-3.28,2.32
		c-0.13,0.02-0.27,0.02-0.41,0.03c-0.07,0.27,0.13,0.39,0.26,0.55c1.23,1.48,2.46,2.96,3.69,4.45c0.12,0.14,0.34,0.27,0.23,0.49
		c-0.11,0.22-0.35,0.07-0.52,0.1c-0.82,0.15-1.39-0.17-1.92-0.84c-1.14-1.45-2.38-2.83-3.6-4.22c-0.34-0.39-0.23-0.81-0.21-1.22
		c0.01-0.27,0.28-0.15,0.43-0.14c0.74,0.01,1.48,0.02,2.19-0.23c0.67-0.24,1.18-0.64,1.47-1.31c0.17-0.39,0.17-0.59-0.36-0.58
		c-1.34,0.03-2.69,0.01-4.04,0.01c0.3-0.95,0.61-1.19,1.53-1.19c0.91,0,1.83,0,2.83,0c-0.47-0.83-1.2-1.09-2-1.15
		C213.19,338.38,212.41,338.42,211.56,338.42z"/>
	<path class="st27" d="M223.14,349.92c-0.12-0.01-0.22-0.05-0.31-0.13c-0.39-0.38-0.8-0.74-1.19-1.11c-0.2-0.2-0.29-0.43-0.06-0.66
		c0.22-0.22,0.41-0.08,0.61,0.09c0.33,0.28,0.58,0.85,0.99,0.78c0.34-0.06,0.6-0.57,0.89-0.88c0.4-0.42,0.81-0.84,1.21-1.26
		c0.18-0.19,0.37-0.3,0.6-0.09c0.23,0.2,0.16,0.42-0.02,0.61c-0.78,0.83-1.57,1.66-2.36,2.5
		C223.4,349.86,223.28,349.91,223.14,349.92z"/>
</g>
<text transform="matrix(1 0 0 1 39.7328 380.3467)" class="st0 st7 st25">Generate V Card</text>
<path class="st13" d="M84.28,371H47.99c-4.73,0-8.57-3.84-8.57-8.57v-29.98c0-4.73,3.84-8.57,8.57-8.57h36.29
	c4.73,0,8.57,3.84,8.57,8.57v29.98C92.85,367.17,89.01,371,84.28,371z"/>
<g>
	<path class="st9" d="M66.08,361.95c-4.55,0-9.09,0-13.64,0c-1.36,0-2.28-0.7-2.58-1.95c-0.04-0.19-0.04-0.38-0.04-0.58
		c0-5.52,0-11.04,0-16.55c0-1.56,1.04-2.61,2.6-2.61c6.13,0,12.26,0,18.4,0c2.98,0,5.95,0.03,8.93-0.01
		c1.72-0.02,2.73,1.32,2.72,2.72c-0.05,5.45-0.05,10.91,0,16.36c0.01,1.27-0.95,2.66-2.64,2.63c-2.36-0.04-4.72-0.01-7.09-0.01
		C70.51,361.95,68.29,361.95,66.08,361.95z"/>
	<path class="st0" d="M77.6,339.89c-8.64,0-17.28,0-25.96,0c0.58-1.8,1.13-3.6,1.75-5.39c0.43-1.24,1.74-1.86,3.02-1.45
		c5.26,1.66,10.51,3.34,15.77,5.01c1.81,0.58,3.61,1.15,5.42,1.73C77.6,339.83,77.6,339.86,77.6,339.89z"/>
	<path class="st0" d="M59.42,358.38c-1.63,0-3.27,0-4.9,0c-0.29,0-0.58-0.02-0.84-0.16c-0.23-0.13-0.45-0.33-0.45-0.59
		c0.01-1.11-0.16-2.24,0.08-3.33c0.36-1.62,2.4-2.8,4-2.32c1.43,0.42,2.83,0.4,4.27,0c1.82-0.51,4.24,1.09,4.07,3.06
		c-0.07,0.79-0.01,1.58-0.01,2.38c0,0.51-0.24,0.81-0.74,0.91c-0.2,0.04-0.42,0.06-0.62,0.06
		C62.66,358.38,61.04,358.38,59.42,358.38z"/>
	<path class="st0" d="M62.73,348.18c-0.03,1.2-0.44,2.24-1.4,3c-1.37,1.09-3.31,0.82-4.37-0.58c-1.09-1.43-1.11-3.44-0.02-4.79
		c0.72-0.9,1.66-1.41,2.83-1.25c1.39,0.19,2.27,1.06,2.74,2.35C62.66,347.31,62.76,347.74,62.73,348.18z"/>
	<path class="st0" d="M73.48,347.34c-1.39,0-2.78,0-4.17,0c-0.77,0-1.32-0.5-1.33-1.21c-0.01-0.75,0.53-1.3,1.3-1.31
		c2.81-0.01,5.63-0.01,8.44,0c0.77,0,1.34,0.58,1.32,1.3c-0.02,0.71-0.57,1.22-1.34,1.22C76.29,347.34,74.88,347.34,73.48,347.34z"
		/>
	<path class="st0" d="M73.52,349.87c1.39,0,2.78,0,4.17,0c0.8,0,1.35,0.52,1.35,1.25c0,0.72-0.57,1.26-1.36,1.26
		c-1.97,0.01-3.94,0-5.92,0c-0.81,0-1.62,0-2.42,0c-0.82-0.01-1.37-0.54-1.36-1.3c0.01-0.73,0.56-1.22,1.38-1.22
		C70.74,349.86,72.13,349.87,73.52,349.87z"/>
	<path class="st0" d="M73.52,354.89c1.37,0,2.75,0,4.12,0c0.84,0,1.4,0.51,1.4,1.25c0,0.7-0.57,1.26-1.36,1.26
		c-2.79,0.01-5.59,0.01-8.38,0c-0.64,0-1.1-0.36-1.28-0.92c-0.15-0.49,0.04-1.03,0.47-1.37c0.26-0.2,0.56-0.23,0.87-0.23
		C70.74,354.9,72.13,354.89,73.52,354.89z"/>
</g>
<g>
	<text transform="matrix(1 0 0 1 120.2517 457.1687)" class="st0 st7 st25">Loan Tracker</text>
</g>
<path class="st13" d="M158.9,447.86h-36.29c-4.73,0-8.57-3.84-8.57-8.57v-29.98c0-4.73,3.84-8.57,8.57-8.57h36.29
	c4.73,0,8.57,3.84,8.57,8.57v29.98C167.48,444.02,163.64,447.86,158.9,447.86z"/>
<g>
	<g>
		<g>
			<path class="st9" d="M140.33,438.14c-1.08-0.31-1.92-0.9-2.21-2.04c-0.34-1.32,0.22-2.56,1.45-3.16c0.3-0.15,0.44-0.31,0.39-0.64
				c-0.02-0.12-0.01-0.25,0-0.37c0.07-0.77-0.06-1.3-0.86-1.81c-1.68-1.06-1.39-3.65,0.41-4.54c0.39-0.19,0.5-0.41,0.45-0.79
				c-0.02-0.16-0.02-0.33,0-0.49c0.1-0.68-0.11-1.08-0.76-1.48c-1.75-1.08-1.55-3.68,0.29-4.63c0.37-0.19,0.52-0.39,0.46-0.79
				c-0.02-0.12-0.01-0.25,0-0.37c0.07-0.71-0.01-1.24-0.79-1.65c-0.91-0.47-1.26-1.44-1.13-2.47c0.15-1.17,0.81-1.97,1.96-2.34
				c0.11-0.04,0.22-0.08,0.34-0.12c0.29,0,0.57,0,0.86,0c0.71,0.22,1.37,0.52,1.81,1.16c0.98,1.42,0.51,3.26-1.05,4.04
				c-0.3,0.15-0.45,0.3-0.39,0.64c0.02,0.12,0.01,0.25,0,0.37c-0.07,0.77,0.05,1.3,0.86,1.81c1.68,1.06,1.4,3.63-0.4,4.54
				c-0.38,0.19-0.51,0.4-0.45,0.79c0.02,0.16,0.02,0.33,0,0.49c-0.1,0.68,0.11,1.08,0.76,1.48c1.74,1.07,1.55,3.68-0.29,4.63
				c-0.37,0.19-0.52,0.39-0.46,0.79c0.02,0.16,0.02,0.33,0,0.49c-0.09,0.67,0.06,1.11,0.75,1.49c0.93,0.5,1.31,1.46,1.18,2.51
				c-0.14,1.17-0.81,1.98-1.96,2.34c-0.11,0.04-0.22,0.08-0.34,0.12C140.91,438.14,140.62,438.14,140.33,438.14z"/>
		</g>
		<g>
			<path class="st9" d="M149.76,437.79c-0.76,0-1.52,0.01-2.28,0c-1.29-0.03-2.3-1.07-2.33-2.37c-0.03-1.24,1.03-2.41,2.28-2.44
				c1.54-0.04,3.08-0.04,4.61,0c1.26,0.03,2.29,1.19,2.25,2.45c-0.04,1.32-1.02,2.33-2.33,2.36
				C151.23,437.81,150.5,437.79,149.76,437.79z"/>
		</g>
		<g>
			<path class="st9" d="M149.75,423.02c-0.74,0-1.47,0.01-2.21,0c-1.3-0.02-2.35-1.07-2.39-2.38c-0.04-1.28,1.02-2.41,2.32-2.44
				c1.51-0.03,3.03-0.03,4.54,0c1.28,0.03,2.29,1.11,2.29,2.39c0,1.31-1.04,2.39-2.34,2.42
				C151.23,423.03,150.49,423.02,149.75,423.02z"/>
		</g>
		<g>
			<path class="st9" d="M148.95,425.58c0.96,0,1.92,0.01,2.88,0c0.53-0.01,0.88,0.19,0.92,0.74c0.04,0.5-0.31,0.85-0.89,0.86
				c-1.92,0.01-3.84,0.01-5.76,0c-0.57,0-0.96-0.36-0.95-0.82c0.01-0.46,0.4-0.77,0.98-0.77
				C147.07,425.57,148.01,425.58,148.95,425.58z"/>
		</g>
		<g>
			<path class="st9" d="M147.34,430.42c-0.45,0-0.9,0-1.35,0c-0.52,0-0.82-0.31-0.83-0.79c-0.01-0.46,0.3-0.78,0.76-0.8
				c0.92-0.04,1.84-0.04,2.75,0c0.47,0.02,0.79,0.33,0.75,0.85c-0.04,0.49-0.34,0.72-0.81,0.73
				C148.2,430.43,147.77,430.42,147.34,430.42z"/>
		</g>
		<g>
			<path class="st9" d="M131.79,410.81c0.74,0,1.48-0.01,2.21,0c1.33,0.03,2.37,1.09,2.36,2.4c0,1.29-1.07,2.4-2.37,2.41
				c-1.48,0.02-2.95,0.02-4.43,0c-1.31-0.02-2.36-1.12-2.35-2.42c0.01-1.33,1.02-2.36,2.36-2.39
				C130.32,410.79,131.05,410.81,131.79,410.81z"/>
		</g>
		<g>
			<path class="st9" d="M131.78,430.41c-0.74,0-1.47,0.02-2.21,0c-1.34-0.04-2.35-1.08-2.35-2.4c-0.01-1.33,1.05-2.41,2.4-2.42
				c1.45-0.01,2.9-0.01,4.36,0c1.31,0.01,2.36,1.06,2.39,2.38c0.04,1.31-1.03,2.41-2.38,2.44
				C133.25,430.42,132.52,430.41,131.78,430.41C131.78,430.41,131.78,430.41,131.78,430.41z"/>
		</g>
		<g>
			<path class="st9" d="M132.57,418.18c0.94,0,1.89-0.01,2.83,0c0.59,0,1,0.33,0.96,0.79c-0.04,0.53-0.39,0.81-0.9,0.81
				c-1.93,0.01-3.85,0.02-5.78,0c-0.58,0-0.95-0.37-0.91-0.85c0.04-0.56,0.4-0.76,0.92-0.76
				C130.65,418.18,131.61,418.18,132.57,418.18z"/>
		</g>
		<g>
			<path class="st9" d="M134.2,423.03c-0.43,0-0.86,0-1.29,0c-0.48,0-0.78-0.23-0.82-0.71c-0.05-0.52,0.26-0.85,0.74-0.87
				c0.94-0.05,1.88-0.04,2.82,0c0.46,0.02,0.75,0.38,0.71,0.84c-0.04,0.43-0.3,0.75-0.81,0.74
				C135.09,423.02,134.64,423.03,134.2,423.03z"/>
		</g>
		<g>
			<path class="st28" d="M140.74,419.46c0.58-0.02,1.14,0.52,1.17,1.11c0.03,0.59-0.55,1.19-1.15,1.19c-0.57,0-1.14-0.56-1.15-1.14
				C139.6,420.04,140.15,419.47,140.74,419.46z"/>
		</g>
		<g>
			<path class="st28" d="M140.75,426.85c0.58-0.01,1.14,0.54,1.16,1.12c0.02,0.6-0.57,1.19-1.17,1.17
				c-0.58-0.01-1.13-0.58-1.13-1.15C139.61,427.43,140.18,426.86,140.75,426.85z"/>
		</g>
		<g>
			<path class="st28" d="M140.73,412.06c0.59-0.02,1.14,0.5,1.17,1.1c0.03,0.59-0.55,1.2-1.15,1.19c-0.58,0-1.14-0.56-1.15-1.14
				C139.61,412.64,140.15,412.08,140.73,412.06z"/>
		</g>
		<g>
			<path class="st3" d="M140.76,434.25c0.58,0,1.15,0.55,1.15,1.13c0.01,0.61-0.58,1.18-1.18,1.16c-0.59-0.02-1.12-0.58-1.12-1.16
				C139.62,434.8,140.17,434.25,140.76,434.25z"/>
		</g>
		<g>
			<path class="st3" d="M147.63,436.19c-0.53,0-0.79-0.3-0.85-0.78c-0.05-0.44,0.35-0.83,0.86-0.84c1.39-0.01,2.78-0.01,4.17,0
				c0.54,0,0.88,0.34,0.88,0.81c0,0.47-0.33,0.79-0.88,0.8c-0.69,0.01-1.39,0-2.08,0"/>
		</g>
		<g>
			<path class="st28" d="M149.74,421.41c-0.69,0-1.39,0.01-2.08,0c-0.51-0.01-0.89-0.37-0.89-0.81c0-0.44,0.38-0.79,0.9-0.79
				c1.39-0.01,2.78,0,4.17,0c0.52,0,0.8,0.27,0.84,0.77c0.04,0.48-0.31,0.82-0.85,0.83C151.13,421.42,150.44,421.41,149.74,421.41z"
				/>
		</g>
		<g>
			<path class="st28" d="M131.73,414.03c-0.63,0-1.27,0-1.9,0c-0.64-0.01-0.99-0.31-0.99-0.83c0.01-0.49,0.35-0.78,0.95-0.79
				c1.33-0.01,2.65-0.01,3.98,0c0.59,0,0.96,0.31,0.97,0.78c0.01,0.49-0.39,0.83-1,0.83C133.08,414.03,132.4,414.03,131.73,414.03z"
				/>
		</g>
		<g>
			<path class="st28" d="M131.75,428.79c-0.69,0-1.39,0-2.08,0c-0.53,0-0.81-0.3-0.81-0.79c-0.01-0.5,0.29-0.8,0.8-0.81
				c1.41-0.01,2.82-0.01,4.23,0c0.51,0,0.91,0.38,0.86,0.83c-0.05,0.48-0.32,0.78-0.85,0.77
				C133.18,428.79,132.46,428.79,131.75,428.79z"/>
		</g>
	</g>
</g>
<text transform="matrix(1 0 0 1 115.0371 380.3467)" class="st0 st7 st25">Branch Connect</text>
<path class="st13" d="M158.9,371h-36.29c-4.73,0-8.57-3.84-8.57-8.57v-29.98c0-4.73,3.84-8.57,8.57-8.57h36.29
	c4.73,0,8.57,3.84,8.57,8.57v29.98C167.48,367.17,163.64,371,158.9,371z"/>
<g>
	<path class="st0" d="M148.05,356.03c-0.53,0.35-0.94,0.65-1.38,0.9c-1.36,0.8-2.83,1.33-4.39,1.6c-0.28,0.05-0.58,0.05-0.86,0.05
		c-0.8-0.02-1.47-0.61-1.53-1.34c-0.06-0.7,0.47-1.37,1.25-1.54c1.95-0.43,3.7-1.24,5.22-2.55c0.76-0.65,1.41-1.41,1.84-2.31
		c0.4-0.84,1.07-1.17,1.93-1.18c1.38-0.02,2.76-0.03,4.15,0c1.26,0.03,1.97,0.78,1.97,2.04c0.01,2.43,0.01,4.87,0,7.3
		c0,1.22-0.74,1.98-1.95,2c-1.4,0.02-2.81,0.02-4.21,0c-1.27-0.02-2.03-0.8-2.04-2.07C148.05,358.01,148.05,357.07,148.05,356.03z"
		/>
	<path class="st9" d="M139.87,355.61c-0.81,0.96-0.83,1.91-0.1,2.98c-2.33-0.31-4.33-1.15-6.16-2.52c-0.18,0.37-0.08,0.74-0.09,1.09
		c-0.02,0.62,0.01,1.24-0.01,1.86c-0.05,1.23-0.82,1.98-2.06,1.99c-1.38,0.01-2.76,0.01-4.15,0c-1.26-0.01-2.04-0.79-2.04-2.06
		c-0.01-2.41-0.01-4.83,0-7.24c0.01-1.24,0.77-2.01,2.01-2.03c1.42-0.02,2.85-0.01,4.27,0c0.7,0.01,1.32,0.23,1.66,0.89
		c1.28,2.48,3.39,3.92,5.96,4.79C139.38,355.43,139.59,355.51,139.87,355.61z"/>
	<path class="st9" d="M142.49,333.86c0.59,0.3,0.99,1.54,0.68,2.09c-0.11,0.18-0.28,0.14-0.44,0.14c-0.6,0.01-1.2-0.01-1.79,0.01
		c-1.13,0.02-1.76,0.65-1.78,1.77c-0.01,0.85-0.02,1.69,0,2.54c0.01,0.39-0.08,0.61-0.51,0.53c-1.05-0.2-1.81,0.23-2.44,1.04
		c-0.35,0.45-0.78,0.83-1.17,1.24c-0.06-0.02-0.11-0.05-0.17-0.07c0-0.58-0.02-1.17,0.01-1.75c0.01-0.34-0.1-0.48-0.46-0.47
		c-0.45,0.02-0.91,0.02-1.36,0c-0.68-0.03-1.11-0.42-1.12-1.07c-0.02-1.69-0.01-3.38,0-5.07c0-0.15,0.02-0.29,0.13-0.4
		c0.36-0.43,0.83-0.5,1.38-0.5c2.83,0.02,5.67,0.01,8.5,0.01C142.12,333.9,142.31,333.91,142.49,333.86z"/>
	<path class="st0" d="M145.35,344.68c-0.47-0.54-0.95-1.07-1.41-1.61c-0.25-0.3-0.54-0.4-0.92-0.38c-0.68,0.03-1.36,0.01-2.04,0
		c-0.82-0.01-1.23-0.4-1.23-1.21c-0.01-1.22-0.01-2.43,0-3.65c0.01-0.77,0.42-1.18,1.2-1.18c2.1-0.01,4.21-0.01,6.31,0
		c0.77,0,1.17,0.42,1.18,1.2c0.01,1.22,0.01,2.43,0,3.65c-0.01,0.77-0.41,1.16-1.19,1.2c-0.49,0.02-1.09-0.19-1.45,0.09
		c-0.36,0.28-0.06,0.89-0.16,1.35C145.6,344.27,145.65,344.43,145.35,344.68z"/>
	<path class="st9" d="M125.85,345.18c0.01-1.97,1.57-3.52,3.55-3.52c1.97,0.01,3.54,1.57,3.54,3.54c0,1.98-1.62,3.59-3.59,3.57
		C127.39,348.74,125.84,347.15,125.85,345.18z"/>
	<path class="st0" d="M148.64,345.21c0-1.99,1.53-3.54,3.51-3.54c2.01-0.01,3.57,1.55,3.57,3.55c0,1.94-1.6,3.54-3.55,3.54
		C150.24,348.76,148.65,347.17,148.64,345.21z"/>
</g>
<path class="st13" d="M233.58,447.86h-36.29c-4.73,0-8.57-3.84-8.57-8.57v-29.98c0-4.73,3.84-8.57,8.57-8.57h36.29
	c4.73,0,8.57,3.84,8.57,8.57v29.98C242.15,444.02,238.31,447.86,233.58,447.86z"/>
<g>
	<text transform="matrix(1 0 0 1 197.2103 457.1687)" class="st0 st7 st25">Documents</text>
</g>
<g>
	<path class="st9" d="M209.82,409.83c0.1-0.11,0.23-0.06,0.35-0.06c4.48,0,8.96,0.02,13.44,0.02c1.55,0,2.38,0.79,2.72,1.64
		c0.13,0.32,0.19,0.64,0.19,0.98c0,7.94,0,15.88,0,23.82c0,1.48-1.13,2.6-2.6,2.61c-5.67,0-11.33,0-17,0
		c-1.41,0-2.56-1.12-2.57-2.52c-0.01-6.9,0-13.81,0-20.71c0-0.05,0.01-0.1,0.02-0.15c0.22-0.17,0.48-0.18,0.75-0.18
		c1.21,0,2.42,0,3.62,0c0.9,0,0.9,0,0.9-0.92c0-1.25,0-2.49,0-3.74C209.64,410.34,209.66,410.07,209.82,409.83z"/>
	<path class="st29" d="M209.82,409.83c0,1.73-0.01,3.46,0.01,5.19c0,0.35-0.13,0.44-0.46,0.44c-1.67-0.01-3.34,0-5,0
		c0.75-0.79,1.5-1.59,2.26-2.38C207.69,412,208.75,410.92,209.82,409.83z"/>
	<path class="st0" d="M215.45,432.68c2.52,0,5.04,0,7.56-0.01c0.28,0,0.4,0.04,0.38,0.36c-0.03,0.46-0.03,0.92,0,1.38
		c0.02,0.29-0.08,0.35-0.36,0.35c-2.98-0.01-5.97-0.01-8.95-0.01c-2.08,0-4.17-0.01-6.25,0.01c-0.27,0-0.37-0.06-0.36-0.35
		c0.02-0.47,0.02-0.95,0-1.42c-0.01-0.28,0.09-0.32,0.34-0.32C210.36,432.69,212.91,432.68,215.45,432.68z"/>
	<path class="st0" d="M215.45,423.93c2.52,0,5.04,0,7.56-0.01c0.28,0,0.4,0.06,0.38,0.37c-0.03,0.47-0.02,0.95,0,1.42
		c0.01,0.21-0.04,0.3-0.28,0.3c-5.12-0.01-10.23-0.01-15.35,0c-0.24,0-0.29-0.09-0.28-0.3c0.01-0.49,0.02-0.97,0-1.46
		c-0.01-0.27,0.09-0.33,0.34-0.33C210.36,423.94,212.91,423.93,215.45,423.93z"/>
	<path class="st0" d="M215.47,428.33c2.52,0,5.04,0.01,7.56-0.01c0.3,0,0.38,0.09,0.37,0.37c-0.02,0.45-0.02,0.9,0,1.35
		c0.01,0.25-0.05,0.34-0.32,0.34c-0.87-0.02-1.75-0.01-2.62-0.01c-4.19,0-8.38,0-12.57,0.01c-0.34,0-0.43-0.09-0.4-0.41
		c0.03-0.41,0.03-0.82,0-1.23c-0.02-0.32,0.06-0.42,0.4-0.41C210.41,428.34,212.94,428.33,215.47,428.33z"/>
	<path class="st0" d="M217.64,419.58c1.8,0,3.59,0.01,5.39-0.01c0.3,0,0.38,0.08,0.36,0.37c-0.02,0.47-0.02,0.95,0,1.42
		c0.01,0.21-0.07,0.27-0.28,0.27c-3.64-0.01-7.28-0.01-10.92,0c-0.24,0-0.29-0.08-0.28-0.3c0.02-0.49,0.02-0.97,0-1.46
		c-0.01-0.25,0.07-0.31,0.31-0.31C214.03,419.58,215.84,419.58,217.64,419.58z"/>
</g>
<g>
	<text transform="matrix(1 0 0 1 42.6973 457.2038)" class="st0 st7 st25">Refer and Earn</text>
</g>
<path class="st13" d="M84.28,447.86H47.99c-4.73,0-8.57-3.84-8.57-8.57v-29.98c0-4.73,3.84-8.57,8.57-8.57h36.29
	c4.73,0,8.57,3.84,8.57,8.57v29.98C92.85,444.02,89.01,447.86,84.28,447.86z"/>
<g>
	<path class="st28" d="M67.03,418.77c0,0,6.98,6.56,6.81,11.47c0,0-4.51-8.41-7.92-10.68L67.03,418.77z"/>
	<path class="st28" d="M56.05,411.24c0.03,0.14,0.05,0.28,0.08,0.43c0.01,0.04,0.02,0.09,0.03,0.13c0.05,0.15,0.11,0.33,0.21,0.45
		c0.1,0.12,0.24,0.19,0.29,0.35c0.18,0.53,0.35,1.06,0.53,1.59c0.22,0.67,0.41,1.34,0.65,2c0.01,0.05,0.04,0.1,0.05,0.15
		c0.01,0.07,0.05,0.14,0.07,0.21c0.04,0.14,0.12,0.2,0.27,0.19c0.33-0.01,0.66-0.01,0.99-0.01c2.33,0,4.67-0.01,7,0.01
		c0.19,0,0.24-0.1,0.29-0.24c0.24-0.74,0.49-1.48,0.73-2.22c0.37-1.17,0.78-2.32,1.14-3.49c0.09-0.3,0.07-0.34-0.25-0.35
		c-0.54-0.01-1.03,0.16-1.49,0.45c-0.59,0.39-1.06,0.9-1.49,1.46c-0.13,0.17-0.24,0.35-0.38,0.51c-0.15,0.17-0.34,0.27-0.57,0.2
		c-0.23-0.08-0.35-0.25-0.38-0.5c-0.07-0.75-0.22-1.48-0.52-2.17c-0.18-0.42-0.43-0.78-0.78-1.06c-0.22-0.18-0.32-0.18-0.55-0.02
		c-0.48,0.35-0.73,0.86-0.94,1.39c-0.06,0.15-0.08,0.32-0.2,0.44c-0.33,0.03-0.65,0.14-0.98,0.19c0.26-1.27,0.71-2.41,1.94-3.07
		c0.31-0.17,0.59-0.15,0.9,0c0.77,0.38,1.22,1.04,1.55,1.79c0.18,0.41,0.3,0.84,0.41,1.3c0.3-0.3,0.56-0.61,0.87-0.87
		c0.81-0.68,1.71-1.1,2.8-1.01c0.35,0.03,0.69,0.12,1,0.29c0.26,0.15,0.33,0.34,0.24,0.62c-0.76,2.32-1.53,4.64-2.29,6.96
		c-0.04,0.12-0.04,0.22,0.01,0.35c0.08,0.2,0.11,0.41,0.08,0.62c-0.02,0.11-0.54,0.94-0.69,1.05c-0.21,0.15-0.48,0.19-0.75,0.19
		c-1.57,0-3.14,0-4.71,0c-0.34,0-0.68,0.01-1.02,0.01c-0.3,0-0.6,0-0.9,0c-0.45,0-0.93,0.04-1.37-0.03
		c-0.11-0.02-0.22-0.05-0.33-0.08c-0.16-0.05-0.25-0.03-0.36,0.09c-0.4,0.4-0.8,0.79-1.14,1.24c0,0.01,0.01,0.02,0.01,0.03
		c-0.02,0.12-0.13,0.17-0.18,0.27c-0.01,0.02-0.02,0.04-0.04,0.05c-0.12,0.12-0.21,0.25-0.31,0.39c-0.01,0.02-0.02,0.04-0.04,0.05
		c-0.09,0.09-0.15,0.19-0.21,0.3c-0.01,0.02-0.02,0.04-0.04,0.06c-0.21,0.26-0.39,0.54-0.55,0.83c-0.01,0.02-0.02,0.04-0.04,0.06
		c-0.23,0.35-0.46,0.7-0.62,1.09c-0.36,0.73-0.74,1.46-1.04,2.23c-0.56,1.44-0.98,2.91-1.08,4.45c-0.09,1.46,0.19,2.86,0.91,4.15
		c0.08,0.1,0.19,0.09,0.29,0.09c0.45,0,0.9,0.01,1.35,0c0.22,0,0.42,0.02,0.62,0.11c0.18,0.08,0.32,0.21,0.45,0.35
		c0.19,0.28,0.26,0.59,0.25,0.92c-0.01,0.4,0.04,0.82-0.14,1.2c-0.01,0.08-0.15,0.14-0.06,0.24c0.87,0.56,1.81,0.97,2.81,1.24
		c0.28,0.1,0.57,0.16,0.86,0.22c1.09,0.22,2.19,0.29,3.29,0.25c1.49-0.06,2.94-0.33,4.31-0.93c0.13-0.06,0.23-0.12,0.22-0.29
		c-0.01-0.15,0.07-0.27,0.14-0.39c0.06-0.11,0.09-0.21,0.04-0.33c0-0.03,0-0.05,0-0.08c-0.19-0.58-0.13-1.16-0.06-1.74
		c0.02-0.18,0.24-0.31,0.24-0.46c0-0.15-0.23-0.28-0.24-0.46c-0.04-0.64-0.21-1.29,0.18-1.88c0.06-0.1,0-0.14-0.03-0.19
		c-0.15-0.2-0.2-0.42-0.2-0.67c0.01-0.26,0.01-0.53,0-0.79c-0.01-0.25,0.04-0.47,0.19-0.67c0.07-0.09,0.08-0.16,0-0.25
		c-0.14-0.18-0.2-0.39-0.19-0.62c0.02-0.4-0.06-0.8,0.05-1.2c0.14-0.47,0.53-0.76,1.02-0.76c1.04,0,2.08-0.01,3.13,0.01
		c0.26,0,1.23,0.01,1.42,0c0.25-0.01,0.5-0.01,0.75,0c0.06,0,0.11-0.01,0.17,0c0.04,0,0.13,0,0.17,0.03
		c0.01,0.01,0.02,0.02,0.03,0.03c0.04,0.04,0.09,0.06,0.14,0.09c0.03,0.02,0.04,0.04,0.07,0.06c0.03,0.02,0.06,0.04,0.09,0.07
		c0.05,0.05,0.1,0.11,0.14,0.17c0.22,0.29,0.45,0.61,0.53,0.97c0.01,0.07,0.02,0.14,0.03,0.21c0.01,0.1,0.01,0.21,0,0.31
		c0,0.1-0.03,0.49-0.14,0.54c0.4-0.17,0.8-0.11,1.2-0.11c1.58-0.01,3.17,0.02,4.75-0.01c0.71-0.01,1.26,0.5,1.22,1.22
		c-0.02,0.3,0.02,0.61-0.02,0.91c-0.02,0.16-0.08,0.29-0.16,0.43c-0.04,0.07-0.16,0.14-0.12,0.21c0.07,0.11,0.14,0.22,0.29,0.27
		c0.82,0.32,1.45,0.86,1.9,1.63c0.88,1.51,0.68,3.46-0.64,4.71c-0.03,0.14-0.13,0.22-0.24,0.3c-0.6,0.43-1.26,0.68-2.01,0.71
		c-1.83,0-3.65,0.03-5.47,0.03c-0.73,0-1.47-0.02-2.2-0.02c-1.03,0-2.05,0.01-3.08-0.01c-0.55-0.01-1.1,0-1.65,0.01
		c-0.6,0.01-1.08-0.18-1.36-0.74c-0.07-0.14-0.17-0.13-0.29-0.09c-0.31,0.1-0.62,0.23-0.93,0.32c-1.47,0.42-2.98,0.62-4.5,0.56
		c-1.86-0.08-3.64-0.47-5.33-1.29c-0.27-0.13-0.27-0.13-0.32,0.18c-0.08,0.59-0.48,1-1.07,1.09c-0.15,0.02-0.29,0.03-0.44,0.03
		c-1.66,0-3.32,0-4.98,0c-0.28,0-0.56-0.04-0.81-0.16c-0.19-0.11-0.36-0.25-0.45-0.47c-0.22-0.48-0.28-0.97-0.11-1.47
		c0.07-0.23,0.11-0.47,0.27-0.67c0.06-0.07,0-0.12-0.04-0.17c-0.15-0.2-0.2-0.42-0.2-0.67c0.01-0.28-0.01-0.56,0-0.84
		c0.01-0.66,0.48-1.11,1.14-1.11c0.89,0,1.77,0,2.69,0c-0.22-0.46-0.4-0.91-0.54-1.38c-0.37-1.25-0.42-2.51-0.24-3.79
		c0.42-2.93,1.57-5.58,3.2-8.03c0.68-1.03,1.47-1.98,2.38-2.84c0.1-0.09,0.13-0.17,0.09-0.31c-0.14-0.47-0.05-0.91,0.28-1.28
		c0.1-0.11,0.1-0.2,0.06-0.33c-0.31-0.93-0.61-1.87-0.92-2.8c-0.14-0.42-0.37-0.9-0.4-1.34c-0.03-0.45-0.14-0.9-0.32-1.32"/>
	<path class="st28" d="M58.77,411.58c-0.56-0.62-1.22-1.08-2.06-1.21c-0.24-0.04-0.47-0.02-0.71,0.03
		c-0.18,0.03-0.09,0.13-0.05,0.21c0,0.15,0.08,0.28,0.11,0.42c0.06,0.24-0.03,0.46-0.26,0.56c-0.22,0.09-0.48,0-0.57-0.23
		c-0.13-0.35-0.26-0.7-0.35-1.06c-0.07-0.27,0.05-0.44,0.36-0.59c0.69-0.32,1.41-0.33,2.12-0.12c1,0.3,1.76,0.94,2.4,1.74
		c0.03,0.05,0,0.1-0.04,0.13c-0.22,0.14-0.37,0.35-0.54,0.53c-0.12,0-0.16-0.09-0.2-0.17l0,0C58.89,411.76,58.8,411.7,58.77,411.58z
		"/>
	<path class="st28" d="M59.16,411.99c0.09-0.32,0.39-0.45,0.6-0.65c0.03,0,0.06,0,0.09,0c0.29-0.16,0.59-0.27,0.94-0.2
		c0.11,0.15,0.03,0.27-0.04,0.4c-0.07,0.09-0.18,0.12-0.28,0.14c-0.36,0.06-0.61,0.26-0.79,0.57c-0.05,0.09-0.11,0.17-0.23,0.16
		C59.27,412.32,59.18,412.18,59.16,411.99z"/>
	<path class="st13" d="M59.16,411.99c0.09,0.14,0.17,0.28,0.3,0.39c0.13,0.05,0.17,0.17,0.24,0.27c0.07,0.09,0.12,0.2,0.24,0.23
		c0.3,0.09,0.45,0,0.53-0.29c0.05-0.2,0.02-0.41,0.06-0.61c0.03-0.15,0.06-0.3,0.15-0.43c0.05-0.13,0.09-0.26,0.1-0.4
		c0.17-0.39,0.27-0.8,0.49-1.16c0.19-0.32,0.42-0.6,0.74-0.81c0.15-0.1,0.27-0.1,0.42,0c0.44,0.29,0.72,0.71,0.93,1.17
		c0.31,0.7,0.48,1.43,0.53,2.19c0.02,0.23,0.12,0.4,0.33,0.46c0.22,0.07,0.4-0.03,0.52-0.22c0.36-0.55,0.77-1.06,1.26-1.5
		c0.52-0.47,1.1-0.81,1.81-0.91c0.23-0.03,0.46,0.01,0.68,0.04c0.17,0.02,0.05,0.13,0.03,0.18c-0.23,0.72-0.46,1.44-0.7,2.15
		c-0.43,1.32-0.87,2.63-1.3,3.95c-0.05,0.14-0.07,0.19-0.23,0.14c-0.13-0.04-0.28-0.03-0.42-0.03c-2.5,0-4.99,0-7.49,0
		c-0.55,0.19-0.97-1.32-1.18-1.9c-0.19-0.52-0.41-1-0.58-1.54c-0.16-0.5-0.27-0.68-0.44-1.18c-0.03-0.07-0.49-1.8-0.4-1.81
		C58.11,409.97,59.1,411.93,59.16,411.99z"/>
	<path class="st30" d="M83.57,436.62c-0.01,1.59-1.24,2.86-2.77,2.85c-1.58-0.01-2.89-1.37-2.89-3c0.01-1.58,1.23-2.85,2.74-2.85
		C82.26,433.62,83.58,434.98,83.57,436.62z"/>
	<path class="st30" d="M71.06,433.18c0.89,0,1.79,0,2.68,0c0.27,0,0.37,0.1,0.37,0.37c0,0.23,0,0.46,0,0.69
		c0,0.32-0.09,0.41-0.41,0.41c-0.98,0-1.95,0-2.93,0c-0.78,0-1.56,0-2.34,0c-0.34,0-0.44-0.1-0.44-0.44c0-0.2,0-0.39,0-0.59
		c0-0.34,0.09-0.44,0.43-0.44C69.3,433.18,70.18,433.18,71.06,433.18z"/>
	<path class="st30" d="M73.85,428.43c0.2,0.06,0.28,0.19,0.27,0.4c-0.01,0.28-0.01,0.56-0.01,0.85c-0.07,0.22-0.25,0.23-0.44,0.23
		c-1.46,0-2.92,0-4.38,0c-0.3,0-0.59,0-0.89,0c-0.31,0-0.41-0.11-0.41-0.42c0-0.24,0-0.48,0-0.71c0-0.21,0.12-0.31,0.32-0.33
		c0.09-0.01,0.18,0,0.27,0c1.67,0,3.33,0,5,0C73.67,428.44,73.76,428.44,73.85,428.43z"/>
	<path class="st30" d="M71.07,430.81c0.88,0,1.76,0,2.63,0c0.32,0,0.41,0.09,0.41,0.41c0,0.21,0,0.43,0,0.64
		c0,0.32-0.09,0.42-0.4,0.42c-1,0-2,0-3,0c-0.75,0-1.51,0-2.26,0c-0.36,0-0.45-0.09-0.45-0.45c0-0.21,0-0.41,0-0.62
		c0-0.29,0.1-0.4,0.4-0.4C69.28,430.81,70.17,430.81,71.07,430.81z"/>
	<path class="st30" d="M78.1,430.81c0.88,0,1.76,0,2.64,0c0.33,0,0.42,0.09,0.42,0.42c0,0.23-0.01,0.46,0,0.69
		c0.01,0.23-0.11,0.33-0.33,0.34c-0.22,0.01-0.44,0-0.66,0c-1.54,0-3.09,0-4.63,0c-0.44,0-0.5-0.05-0.5-0.49c0-0.2,0-0.39,0-0.59
		c0-0.29,0.09-0.38,0.38-0.38C76.31,430.8,77.2,430.81,78.1,430.81C78.1,430.81,78.1,430.81,78.1,430.81z"/>
	<path class="st30" d="M71.04,437.12c-0.88,0-1.76,0-2.63,0c-0.32,0-0.42-0.1-0.42-0.43c0-0.21,0-0.41,0-0.62
		c0-0.32,0.1-0.42,0.43-0.42c0.26,0,0.53,0,0.79,0c1.47,0,2.94,0,4.41,0c0.44,0,0.5,0.06,0.5,0.49c0,0.2,0,0.39,0,0.59
		c-0.01,0.28-0.1,0.38-0.39,0.38C72.83,437.12,71.94,437.12,71.04,437.12z"/>
	<path class="st30" d="M71.04,439.48c-0.89,0-1.79,0-2.68,0c-0.26,0-0.36-0.1-0.37-0.37c0-0.24,0-0.48,0-0.71
		c0-0.25,0.11-0.36,0.36-0.37c0.23-0.01,0.46,0,0.69,0c1.53,0,3.07,0,4.6,0c0.42,0,0.47,0.05,0.47,0.46c0,0.21,0.01,0.43,0,0.64
		c-0.01,0.25-0.11,0.35-0.36,0.35C72.85,439.48,71.95,439.48,71.04,439.48z"/>
	<path class="st30" d="M51.87,435.72c0.89,0,1.77,0,2.66,0c0.34,0,0.41,0.07,0.41,0.4c0,0.22,0,0.44,0,0.66
		c0,0.29-0.09,0.38-0.38,0.38c-1.21,0-2.43,0-3.64,0c-0.57,0-1.15,0-1.72,0c-0.27,0-0.37-0.1-0.37-0.37c0-0.24,0-0.48,0-0.71
		c0-0.28,0.09-0.36,0.37-0.37C50.08,435.72,50.97,435.72,51.87,435.72z"/>
	<path class="st30" d="M49.01,439.52c-0.15-0.06-0.2-0.18-0.19-0.33c0.01-0.21,0-0.43,0-0.64c0-0.38,0.09-0.46,0.46-0.46
		c0.8,0,1.61,0.01,2.41,0.01c0.93,0,1.86,0,2.78,0c0.1,0,0.21-0.03,0.31,0.04c0.1,0.13,0.13,0.28,0.13,0.44
		c-0.01,0.17,0,0.34,0,0.52c0,0.35-0.07,0.42-0.41,0.42c-1.74,0-3.48,0-5.21,0C49.19,439.51,49.09,439.5,49.01,439.52z"/>
	<path class="st30" d="M78.94,433.23c-0.38,0.26-0.71,0.49-0.95,0.81c-0.1,0.12-0.21,0.24-0.28,0.38c-0.11,0.25-0.29,0.3-0.54,0.29
		c-0.57-0.02-1.15-0.01-1.72,0c-0.32,0-0.42-0.1-0.42-0.43c0-0.24,0.01-0.48,0-0.71c0-0.2,0.1-0.33,0.29-0.33
		C76.51,433.22,77.69,433.23,78.94,433.23z"/>
	<path class="st30" d="M77.53,438.25c0.17,0.26,0.34,0.51,0.51,0.77c0.15,0.25,0.01,0.48-0.31,0.49c-0.48,0.01-0.95,0-1.43,0
		c-0.3,0-0.61,0.01-0.91-0.01c-0.21-0.01-0.32-0.1-0.33-0.3c-0.01-0.27-0.01-0.54,0-0.81c0-0.16,0.11-0.26,0.27-0.26
		c0.66-0.01,1.31,0,1.97-0.01C77.41,438.12,77.45,438.21,77.53,438.25z"/>
	<path class="st30" d="M76.19,437.16c-0.26,0-0.52,0-0.79,0c-0.27,0-0.37-0.1-0.37-0.36c0-0.25,0.01-0.51,0-0.76
		c-0.01-0.22,0.11-0.33,0.31-0.33c0.57-0.01,1.13,0,1.7-0.01c0.12,0,0.14,0.06,0.12,0.15c-0.06,0.4-0.08,0.8,0,1.2
		c0.03,0.13-0.06,0.12-0.15,0.12C76.74,437.16,76.46,437.16,76.19,437.16z"/>
	<path class="st28" d="M60.69,411.54c0.01,0.16-0.04,0.3-0.08,0.45c-0.05,0.03-0.09,0.07-0.14,0.09c-0.37,0.17-0.53,0.47-0.56,0.86
		c-0.23-0.12-0.31-0.37-0.45-0.57c0.03-0.01,0.07-0.02,0.08-0.04C59.76,411.82,60.19,411.63,60.69,411.54z"/>
	<path class="st28" d="M59.91,412.94c-0.14-0.42,0.21-0.91,0.7-0.96c-0.02,0.2-0.02,0.41-0.05,0.61
		C60.5,412.96,60.25,413.09,59.91,412.94z"/>
	<g>
		<g>
			<path class="st28" d="M66.54,422.66h-3.3c0.58,0.46,1,1.12,1.12,2.04h2.18v1h-2.16c-0.2,2.04-1.82,3.34-4.38,3.42
				c1.56,1.62,3.26,3.66,4.94,5.72h-1.92c-1.56-1.88-3.02-3.62-4.9-5.62v-1.24h1.1c2.16,0,3.32-0.9,3.46-2.28h-4.56v-1h4.5
				c-0.28-1.16-1.34-1.74-3.08-1.74h-1.42v-1.3h8.42V422.66z"/>
		</g>
	</g>
	<g>
		<path class="st3" d="M81.87,435.07h-0.88c0.15,0.12,0.27,0.3,0.3,0.54h0.58v0.27h-0.57c-0.05,0.54-0.48,0.89-1.16,0.91
			c0.41,0.43,0.87,0.97,1.31,1.52h-0.51c-0.41-0.5-0.8-0.96-1.3-1.49v-0.33h0.29c0.57,0,0.88-0.24,0.92-0.61h-1.21v-0.27h1.2
			c-0.07-0.31-0.36-0.46-0.82-0.46h-0.38v-0.35h2.24V435.07z"/>
	</g>
	<path class="st30" d="M66.08,418.98h-7.87c-0.27,0-0.5-0.22-0.5-0.5v-0.26c0-0.27,0.22-0.5,0.5-0.5h7.87c0.27,0,0.5,0.22,0.5,0.5
		v0.26C66.58,418.75,66.36,418.98,66.08,418.98z"/>
</g>
<text transform="matrix(1 0 0 1 103.2931 288.8564)" class="st3 st7 st31">E-Sign</text>
</svg>
